%TF.GenerationSoftware,KiCad,Pcbnew,(5.1.10)-1*%
%TF.CreationDate,2021-11-11T00:21:49+01:00*%
%TF.ProjectId,navidat,6e617669-6461-4742-9e6b-696361645f70,rev?*%
%TF.SameCoordinates,Original*%
%TF.FileFunction,Legend,Bot*%
%TF.FilePolarity,Positive*%
%FSLAX46Y46*%
G04 Gerber Fmt 4.6, Leading zero omitted, Abs format (unit mm)*
G04 Created by KiCad (PCBNEW (5.1.10)-1) date 2021-11-11 00:21:49*
%MOMM*%
%LPD*%
G01*
G04 APERTURE LIST*
%ADD10C,0.400000*%
%ADD11C,0.300000*%
%ADD12C,0.010000*%
%ADD13C,0.120000*%
%ADD14C,0.150000*%
G04 APERTURE END LIST*
D10*
X125738428Y-103505000D02*
X132881285Y-103505000D01*
D11*
X128880071Y-105263642D02*
X127380071Y-105263642D01*
X128880071Y-106120785D01*
X127380071Y-106120785D01*
X128880071Y-107477928D02*
X128094357Y-107477928D01*
X127951500Y-107406500D01*
X127880071Y-107263642D01*
X127880071Y-106977928D01*
X127951500Y-106835071D01*
X128808642Y-107477928D02*
X128880071Y-107335071D01*
X128880071Y-106977928D01*
X128808642Y-106835071D01*
X128665785Y-106763642D01*
X128522928Y-106763642D01*
X128380071Y-106835071D01*
X128308642Y-106977928D01*
X128308642Y-107335071D01*
X128237214Y-107477928D01*
X127880071Y-108049357D02*
X128880071Y-108406500D01*
X127880071Y-108763642D01*
X128880071Y-109335071D02*
X127880071Y-109335071D01*
X127380071Y-109335071D02*
X127451500Y-109263642D01*
X127522928Y-109335071D01*
X127451500Y-109406500D01*
X127380071Y-109335071D01*
X127522928Y-109335071D01*
X128880071Y-110692214D02*
X127380071Y-110692214D01*
X128808642Y-110692214D02*
X128880071Y-110549357D01*
X128880071Y-110263642D01*
X128808642Y-110120785D01*
X128737214Y-110049357D01*
X128594357Y-109977928D01*
X128165785Y-109977928D01*
X128022928Y-110049357D01*
X127951500Y-110120785D01*
X127880071Y-110263642D01*
X127880071Y-110549357D01*
X127951500Y-110692214D01*
X128880071Y-112049357D02*
X128094357Y-112049357D01*
X127951500Y-111977928D01*
X127880071Y-111835071D01*
X127880071Y-111549357D01*
X127951500Y-111406500D01*
X128808642Y-112049357D02*
X128880071Y-111906500D01*
X128880071Y-111549357D01*
X128808642Y-111406500D01*
X128665785Y-111335071D01*
X128522928Y-111335071D01*
X128380071Y-111406500D01*
X128308642Y-111549357D01*
X128308642Y-111906500D01*
X128237214Y-112049357D01*
X127880071Y-112549357D02*
X127880071Y-113120785D01*
X127380071Y-112763642D02*
X128665785Y-112763642D01*
X128808642Y-112835071D01*
X128880071Y-112977928D01*
X128880071Y-113120785D01*
X128880071Y-114763642D02*
X127880071Y-114763642D01*
X128165785Y-114763642D02*
X128022928Y-114835071D01*
X127951500Y-114906500D01*
X127880071Y-115049357D01*
X127880071Y-115192214D01*
X128808642Y-116263642D02*
X128880071Y-116120785D01*
X128880071Y-115835071D01*
X128808642Y-115692214D01*
X128665785Y-115620785D01*
X128094357Y-115620785D01*
X127951500Y-115692214D01*
X127880071Y-115835071D01*
X127880071Y-116120785D01*
X127951500Y-116263642D01*
X128094357Y-116335071D01*
X128237214Y-116335071D01*
X128380071Y-115620785D01*
X127880071Y-116835071D02*
X128880071Y-117192214D01*
X127880071Y-117549357D01*
X128737214Y-118120785D02*
X128808642Y-118192214D01*
X128880071Y-118120785D01*
X128808642Y-118049357D01*
X128737214Y-118120785D01*
X128880071Y-118120785D01*
X128880071Y-119620785D02*
X128880071Y-118763642D01*
X128880071Y-119192214D02*
X127380071Y-119192214D01*
X127594357Y-119049357D01*
X127737214Y-118906500D01*
X127808642Y-118763642D01*
X131430071Y-105263642D02*
X129930071Y-105263642D01*
X130858642Y-105406500D02*
X131430071Y-105835071D01*
X130430071Y-105835071D02*
X131001500Y-105263642D01*
X131358642Y-107049357D02*
X131430071Y-106906500D01*
X131430071Y-106620785D01*
X131358642Y-106477928D01*
X131215785Y-106406500D01*
X130644357Y-106406500D01*
X130501500Y-106477928D01*
X130430071Y-106620785D01*
X130430071Y-106906500D01*
X130501500Y-107049357D01*
X130644357Y-107120785D01*
X130787214Y-107120785D01*
X130930071Y-106406500D01*
X130430071Y-107620785D02*
X131430071Y-107977928D01*
X130430071Y-108335071D02*
X131430071Y-107977928D01*
X131787214Y-107835071D01*
X131858642Y-107763642D01*
X131930071Y-107620785D01*
X131430071Y-108906500D02*
X129930071Y-108906500D01*
X130501500Y-108906500D02*
X130430071Y-109049357D01*
X130430071Y-109335071D01*
X130501500Y-109477928D01*
X130572928Y-109549357D01*
X130715785Y-109620785D01*
X131144357Y-109620785D01*
X131287214Y-109549357D01*
X131358642Y-109477928D01*
X131430071Y-109335071D01*
X131430071Y-109049357D01*
X131358642Y-108906500D01*
X131430071Y-110477928D02*
X131358642Y-110335071D01*
X131287214Y-110263642D01*
X131144357Y-110192214D01*
X130715785Y-110192214D01*
X130572928Y-110263642D01*
X130501500Y-110335071D01*
X130430071Y-110477928D01*
X130430071Y-110692214D01*
X130501500Y-110835071D01*
X130572928Y-110906500D01*
X130715785Y-110977928D01*
X131144357Y-110977928D01*
X131287214Y-110906500D01*
X131358642Y-110835071D01*
X131430071Y-110692214D01*
X131430071Y-110477928D01*
X131430071Y-112263642D02*
X130644357Y-112263642D01*
X130501500Y-112192214D01*
X130430071Y-112049357D01*
X130430071Y-111763642D01*
X130501500Y-111620785D01*
X131358642Y-112263642D02*
X131430071Y-112120785D01*
X131430071Y-111763642D01*
X131358642Y-111620785D01*
X131215785Y-111549357D01*
X131072928Y-111549357D01*
X130930071Y-111620785D01*
X130858642Y-111763642D01*
X130858642Y-112120785D01*
X130787214Y-112263642D01*
X131430071Y-112977928D02*
X130430071Y-112977928D01*
X130715785Y-112977928D02*
X130572928Y-113049357D01*
X130501500Y-113120785D01*
X130430071Y-113263642D01*
X130430071Y-113406500D01*
X131430071Y-114549357D02*
X129930071Y-114549357D01*
X131358642Y-114549357D02*
X131430071Y-114406500D01*
X131430071Y-114120785D01*
X131358642Y-113977928D01*
X131287214Y-113906500D01*
X131144357Y-113835071D01*
X130715785Y-113835071D01*
X130572928Y-113906500D01*
X130501500Y-113977928D01*
X130430071Y-114120785D01*
X130430071Y-114406500D01*
X130501500Y-114549357D01*
X131358642Y-115192214D02*
X131430071Y-115335071D01*
X131430071Y-115620785D01*
X131358642Y-115763642D01*
X131215785Y-115835071D01*
X131144357Y-115835071D01*
X131001500Y-115763642D01*
X130930071Y-115620785D01*
X130930071Y-115406500D01*
X130858642Y-115263642D01*
X130715785Y-115192214D01*
X130644357Y-115192214D01*
X130501500Y-115263642D01*
X130430071Y-115406500D01*
X130430071Y-115620785D01*
X130501500Y-115763642D01*
X131287214Y-116477928D02*
X131358642Y-116549357D01*
X131430071Y-116477928D01*
X131358642Y-116406500D01*
X131287214Y-116477928D01*
X131430071Y-116477928D01*
X131358642Y-117763642D02*
X131430071Y-117620785D01*
X131430071Y-117335071D01*
X131358642Y-117192214D01*
X131215785Y-117120785D01*
X130644357Y-117120785D01*
X130501500Y-117192214D01*
X130430071Y-117335071D01*
X130430071Y-117620785D01*
X130501500Y-117763642D01*
X130644357Y-117835071D01*
X130787214Y-117835071D01*
X130930071Y-117120785D01*
X131430071Y-118692214D02*
X131358642Y-118549357D01*
X131215785Y-118477928D01*
X129930071Y-118477928D01*
X131430071Y-119263642D02*
X130430071Y-119263642D01*
X130572928Y-119263642D02*
X130501500Y-119335071D01*
X130430071Y-119477928D01*
X130430071Y-119692214D01*
X130501500Y-119835071D01*
X130644357Y-119906500D01*
X131430071Y-119906500D01*
X130644357Y-119906500D02*
X130501500Y-119977928D01*
X130430071Y-120120785D01*
X130430071Y-120335071D01*
X130501500Y-120477928D01*
X130644357Y-120549357D01*
X131430071Y-120549357D01*
X131430071Y-121477928D02*
X131358642Y-121335071D01*
X131287214Y-121263642D01*
X131144357Y-121192214D01*
X130715785Y-121192214D01*
X130572928Y-121263642D01*
X130501500Y-121335071D01*
X130430071Y-121477928D01*
X130430071Y-121692214D01*
X130501500Y-121835071D01*
X130572928Y-121906500D01*
X130715785Y-121977928D01*
X131144357Y-121977928D01*
X131287214Y-121906500D01*
X131358642Y-121835071D01*
X131430071Y-121692214D01*
X131430071Y-121477928D01*
X131287214Y-122620785D02*
X131358642Y-122692214D01*
X131430071Y-122620785D01*
X131358642Y-122549357D01*
X131287214Y-122620785D01*
X131430071Y-122620785D01*
X131358642Y-123263642D02*
X131430071Y-123406500D01*
X131430071Y-123692214D01*
X131358642Y-123835071D01*
X131215785Y-123906500D01*
X131144357Y-123906500D01*
X131001500Y-123835071D01*
X130930071Y-123692214D01*
X130930071Y-123477928D01*
X130858642Y-123335071D01*
X130715785Y-123263642D01*
X130644357Y-123263642D01*
X130501500Y-123335071D01*
X130430071Y-123477928D01*
X130430071Y-123692214D01*
X130501500Y-123835071D01*
X130430071Y-124549357D02*
X131930071Y-124549357D01*
X130501500Y-124549357D02*
X130430071Y-124692214D01*
X130430071Y-124977928D01*
X130501500Y-125120785D01*
X130572928Y-125192214D01*
X130715785Y-125263642D01*
X131144357Y-125263642D01*
X131287214Y-125192214D01*
X131358642Y-125120785D01*
X131430071Y-124977928D01*
X131430071Y-124692214D01*
X131358642Y-124549357D01*
X131430071Y-126549357D02*
X130644357Y-126549357D01*
X130501500Y-126477928D01*
X130430071Y-126335071D01*
X130430071Y-126049357D01*
X130501500Y-125906500D01*
X131358642Y-126549357D02*
X131430071Y-126406500D01*
X131430071Y-126049357D01*
X131358642Y-125906500D01*
X131215785Y-125835071D01*
X131072928Y-125835071D01*
X130930071Y-125906500D01*
X130858642Y-126049357D01*
X130858642Y-126406500D01*
X130787214Y-126549357D01*
X131358642Y-127906500D02*
X131430071Y-127763642D01*
X131430071Y-127477928D01*
X131358642Y-127335071D01*
X131287214Y-127263642D01*
X131144357Y-127192214D01*
X130715785Y-127192214D01*
X130572928Y-127263642D01*
X130501500Y-127335071D01*
X130430071Y-127477928D01*
X130430071Y-127763642D01*
X130501500Y-127906500D01*
X131358642Y-129120785D02*
X131430071Y-128977928D01*
X131430071Y-128692214D01*
X131358642Y-128549357D01*
X131215785Y-128477928D01*
X130644357Y-128477928D01*
X130501500Y-128549357D01*
X130430071Y-128692214D01*
X130430071Y-128977928D01*
X130501500Y-129120785D01*
X130644357Y-129192214D01*
X130787214Y-129192214D01*
X130930071Y-128477928D01*
D12*
%TO.C,G\u002A\u002A\u002A*%
G36*
X124788499Y-97694770D02*
G01*
X124814595Y-97811810D01*
X124815867Y-97815718D01*
X124840018Y-97885390D01*
X124865283Y-97952854D01*
X124883592Y-97997433D01*
X124905780Y-98050619D01*
X124923368Y-98098282D01*
X124926291Y-98107500D01*
X124940324Y-98141935D01*
X124965554Y-98183443D01*
X125006045Y-98237992D01*
X125062374Y-98307361D01*
X125099271Y-98353164D01*
X125130434Y-98394216D01*
X125138574Y-98405775D01*
X125164584Y-98434984D01*
X125209868Y-98477465D01*
X125266416Y-98526427D01*
X125326218Y-98575080D01*
X125381263Y-98616632D01*
X125411419Y-98637072D01*
X125572709Y-98722508D01*
X125750736Y-98789054D01*
X125932887Y-98832516D01*
X126039300Y-98845800D01*
X126109341Y-98851168D01*
X126154978Y-98858500D01*
X126182171Y-98874156D01*
X126196883Y-98904497D01*
X126205076Y-98955884D01*
X126212288Y-99030366D01*
X126222106Y-99118781D01*
X126235294Y-99221008D01*
X126250428Y-99327419D01*
X126266082Y-99428384D01*
X126280831Y-99514274D01*
X126292497Y-99572233D01*
X126308552Y-99707068D01*
X126299512Y-99856797D01*
X126270182Y-99998375D01*
X126250874Y-100069871D01*
X126233474Y-100136545D01*
X126221353Y-100185443D01*
X126220231Y-100190299D01*
X126207769Y-100241407D01*
X126196109Y-100283696D01*
X126195685Y-100285068D01*
X126196154Y-100317663D01*
X126220588Y-100355480D01*
X126238007Y-100373968D01*
X126282328Y-100410321D01*
X126329622Y-100426708D01*
X126370535Y-100430330D01*
X126473859Y-100430847D01*
X126550326Y-100422876D01*
X126606095Y-100405483D01*
X126631292Y-100390776D01*
X126662793Y-100369870D01*
X126678661Y-100362313D01*
X126679075Y-100362713D01*
X126683594Y-100380308D01*
X126695052Y-100423066D01*
X126711430Y-100483489D01*
X126721522Y-100520499D01*
X126744046Y-100603247D01*
X126766942Y-100687864D01*
X126786108Y-100759180D01*
X126790194Y-100774500D01*
X126807900Y-100832778D01*
X126826144Y-100879913D01*
X126838091Y-100901500D01*
X126858060Y-100934219D01*
X126879183Y-100980482D01*
X126881384Y-100986166D01*
X126921097Y-101065766D01*
X126977386Y-101144967D01*
X127044773Y-101219007D01*
X127117779Y-101283127D01*
X127190924Y-101332564D01*
X127258729Y-101362558D01*
X127315715Y-101368348D01*
X127320236Y-101367495D01*
X127363204Y-101351706D01*
X127390370Y-101332211D01*
X127414284Y-101311551D01*
X127424809Y-101307899D01*
X127441757Y-101319342D01*
X127476579Y-101350316D01*
X127523832Y-101395792D01*
X127566829Y-101439133D01*
X127625316Y-101500603D01*
X127665491Y-101548343D01*
X127693468Y-101592085D01*
X127715362Y-101641557D01*
X127737287Y-101706490D01*
X127739745Y-101714300D01*
X127767965Y-101793114D01*
X127797352Y-101856205D01*
X127823927Y-101895094D01*
X127825197Y-101896333D01*
X127880925Y-101927176D01*
X127950345Y-101933058D01*
X128023684Y-101913439D01*
X128035086Y-101907920D01*
X128089396Y-101875205D01*
X128151986Y-101830808D01*
X128211746Y-101783257D01*
X128257569Y-101741084D01*
X128268916Y-101728366D01*
X128283885Y-101711733D01*
X128298171Y-101706769D01*
X128317958Y-101716518D01*
X128349427Y-101744027D01*
X128398733Y-101792310D01*
X128508979Y-101888005D01*
X128629227Y-101968951D01*
X128751886Y-102031018D01*
X128869365Y-102070079D01*
X128928003Y-102080155D01*
X129007492Y-102079088D01*
X129063205Y-102055494D01*
X129097995Y-102007769D01*
X129107227Y-101979457D01*
X129120598Y-101938097D01*
X129136990Y-101923024D01*
X129158027Y-101925264D01*
X129261249Y-101953361D01*
X129343435Y-101971475D01*
X129415288Y-101981440D01*
X129487509Y-101985091D01*
X129507746Y-101985233D01*
X129622999Y-101977268D01*
X129731738Y-101955063D01*
X129823554Y-101921152D01*
X129862484Y-101898832D01*
X129901760Y-101875762D01*
X129957978Y-101847113D01*
X130001558Y-101826901D01*
X130057857Y-101799320D01*
X130090845Y-101771761D01*
X130108407Y-101733355D01*
X130118427Y-101673232D01*
X130119459Y-101664377D01*
X130124172Y-101642924D01*
X130137214Y-101629951D01*
X130166069Y-101622695D01*
X130218219Y-101618390D01*
X130248120Y-101616833D01*
X130344054Y-101619012D01*
X130436851Y-101633301D01*
X130516427Y-101657445D01*
X130572700Y-101689194D01*
X130572933Y-101689391D01*
X130622160Y-101723990D01*
X130683134Y-101757223D01*
X130744073Y-101783554D01*
X130793197Y-101797446D01*
X130804792Y-101798357D01*
X130863751Y-101781812D01*
X130916031Y-101738194D01*
X130957703Y-101674184D01*
X130984843Y-101596464D01*
X130993524Y-101511714D01*
X130991382Y-101480829D01*
X130984570Y-101427733D01*
X130978388Y-101386706D01*
X130976337Y-101375943D01*
X130984314Y-101359419D01*
X131019066Y-101345067D01*
X131072466Y-101333316D01*
X131131074Y-101321834D01*
X131178329Y-101311211D01*
X131199466Y-101305243D01*
X131231301Y-101294292D01*
X131278911Y-101278853D01*
X131292599Y-101274537D01*
X131398204Y-101233839D01*
X131515121Y-101176387D01*
X131630582Y-101109238D01*
X131731816Y-101039450D01*
X131762775Y-101014655D01*
X131817749Y-100963117D01*
X131875433Y-100900542D01*
X131929313Y-100834968D01*
X131972874Y-100774429D01*
X131999604Y-100726963D01*
X132002728Y-100718610D01*
X132022126Y-100690846D01*
X132061224Y-100654263D01*
X132101950Y-100623579D01*
X132205636Y-100544463D01*
X132312226Y-100447859D01*
X132418576Y-100338046D01*
X132521546Y-100219305D01*
X132617992Y-100095914D01*
X132704773Y-99972152D01*
X132778746Y-99852300D01*
X132836769Y-99740637D01*
X132875701Y-99641442D01*
X132892398Y-99558994D01*
X132892800Y-99546491D01*
X132904472Y-99501964D01*
X132932096Y-99460242D01*
X133002440Y-99378218D01*
X133066514Y-99285497D01*
X133120898Y-99188948D01*
X133162169Y-99095439D01*
X133186908Y-99011837D01*
X133191693Y-98945010D01*
X133191071Y-98940331D01*
X133189900Y-98888733D01*
X133204793Y-98835150D01*
X133238773Y-98771661D01*
X133277135Y-98714831D01*
X133307636Y-98670011D01*
X133327951Y-98636275D01*
X133333066Y-98623913D01*
X133341152Y-98603987D01*
X133362286Y-98564086D01*
X133389971Y-98516115D01*
X133430640Y-98436200D01*
X133473332Y-98331866D01*
X133514894Y-98212162D01*
X133552173Y-98086135D01*
X133580864Y-97968264D01*
X133595571Y-97864795D01*
X133601097Y-97744024D01*
X133597830Y-97617960D01*
X133586159Y-97498614D01*
X133566474Y-97397995D01*
X133561872Y-97382024D01*
X133546691Y-97328703D01*
X133542961Y-97292404D01*
X133551625Y-97257950D01*
X133572399Y-97212690D01*
X133598621Y-97132699D01*
X133613063Y-97030414D01*
X133615212Y-96915477D01*
X133604555Y-96797531D01*
X133596824Y-96752833D01*
X133579190Y-96672523D01*
X133557566Y-96585231D01*
X133544279Y-96536653D01*
X133528437Y-96478407D01*
X133522817Y-96443553D01*
X133527125Y-96423293D01*
X133540010Y-96409653D01*
X133575193Y-96361265D01*
X133593673Y-96288638D01*
X133596436Y-96196416D01*
X133584469Y-96089238D01*
X133558759Y-95971748D01*
X133520292Y-95848586D01*
X133470055Y-95724395D01*
X133409034Y-95603815D01*
X133347752Y-95505182D01*
X133319765Y-95461200D01*
X133302220Y-95427510D01*
X133299200Y-95417123D01*
X133286735Y-95393412D01*
X133278033Y-95386308D01*
X133251463Y-95363371D01*
X133218426Y-95326997D01*
X133184481Y-95284607D01*
X133155188Y-95243621D01*
X133136106Y-95211462D01*
X133132793Y-95195550D01*
X133134700Y-95194966D01*
X133173319Y-95179433D01*
X133200542Y-95136134D01*
X133213716Y-95070025D01*
X133214533Y-95045853D01*
X133204288Y-94960692D01*
X133176058Y-94859315D01*
X133133598Y-94751472D01*
X133080665Y-94646912D01*
X133030625Y-94568433D01*
X132999912Y-94530632D01*
X132953914Y-94480007D01*
X132897693Y-94421490D01*
X132836313Y-94360017D01*
X132774836Y-94300520D01*
X132718326Y-94247935D01*
X132671847Y-94207196D01*
X132640460Y-94183235D01*
X132630975Y-94178966D01*
X132622156Y-94169334D01*
X132627793Y-94137836D01*
X132648619Y-94080568D01*
X132650091Y-94076913D01*
X132682408Y-93968427D01*
X132700621Y-93842569D01*
X132701160Y-93835310D01*
X132705151Y-93762246D01*
X132701912Y-93710850D01*
X132686653Y-93677311D01*
X132654585Y-93657822D01*
X132600920Y-93648573D01*
X132520867Y-93645755D01*
X132462593Y-93645566D01*
X132377526Y-93644872D01*
X132316999Y-93641732D01*
X132271697Y-93634562D01*
X132232304Y-93621776D01*
X132189506Y-93601790D01*
X132181599Y-93597757D01*
X132121887Y-93567277D01*
X132066297Y-93539186D01*
X132037666Y-93524910D01*
X131994284Y-93502695D01*
X131961466Y-93484521D01*
X131917075Y-93460208D01*
X131857249Y-93430585D01*
X131792622Y-93400551D01*
X131733826Y-93375008D01*
X131691494Y-93358854D01*
X131684121Y-93356702D01*
X131643489Y-93339546D01*
X131621421Y-93322171D01*
X131593188Y-93301624D01*
X131579392Y-93298433D01*
X131550985Y-93287200D01*
X131547340Y-93257906D01*
X131562552Y-93226961D01*
X131585431Y-93172358D01*
X131584153Y-93116996D01*
X131559013Y-93073405D01*
X131558958Y-93073355D01*
X131530172Y-93055905D01*
X131478204Y-93031912D01*
X131412058Y-93005374D01*
X131377595Y-92992794D01*
X131309068Y-92969913D01*
X131249266Y-92954002D01*
X131188090Y-92943411D01*
X131115440Y-92936492D01*
X131021214Y-92931594D01*
X130996937Y-92930637D01*
X130865697Y-92928006D01*
X130756282Y-92931598D01*
X130657127Y-92941971D01*
X130611025Y-92949306D01*
X130539903Y-92961320D01*
X130480031Y-92970654D01*
X130440233Y-92975968D01*
X130430599Y-92976700D01*
X130411534Y-92961976D01*
X130391319Y-92924775D01*
X130384040Y-92904733D01*
X130346818Y-92837238D01*
X130287646Y-92793968D01*
X130210442Y-92777284D01*
X130175000Y-92778623D01*
X130104046Y-92793440D01*
X130104046Y-93033028D01*
X130110869Y-93033924D01*
X130114940Y-93060076D01*
X130095106Y-93100361D01*
X130055070Y-93149301D01*
X129998540Y-93201421D01*
X129996286Y-93203253D01*
X129936295Y-93256495D01*
X129904475Y-93298119D01*
X129899043Y-93332305D01*
X129918215Y-93363233D01*
X129925233Y-93369734D01*
X129977447Y-93399074D01*
X130044889Y-93407499D01*
X130130923Y-93394813D01*
X130238916Y-93360817D01*
X130268133Y-93349600D01*
X130441329Y-93285861D01*
X130596471Y-93239541D01*
X130743078Y-93208396D01*
X130890669Y-93190180D01*
X130964192Y-93185393D01*
X131050461Y-93182399D01*
X131128527Y-93181883D01*
X131189925Y-93183759D01*
X131226188Y-93187941D01*
X131226659Y-93188063D01*
X131275666Y-93201124D01*
X131224866Y-93223615D01*
X131178019Y-93239934D01*
X131139377Y-93246869D01*
X131108670Y-93258534D01*
X131065880Y-93287821D01*
X131033544Y-93315995D01*
X130984814Y-93368423D01*
X130963565Y-93407610D01*
X130971070Y-93435269D01*
X131008603Y-93453111D01*
X131077437Y-93462851D01*
X131144918Y-93465764D01*
X131255341Y-93474697D01*
X131369992Y-93498076D01*
X131493185Y-93537492D01*
X131629231Y-93594534D01*
X131782442Y-93670792D01*
X131944533Y-93760592D01*
X132054472Y-93821615D01*
X132144106Y-93865626D01*
X132220619Y-93895396D01*
X132291196Y-93913695D01*
X132363021Y-93923293D01*
X132367318Y-93923636D01*
X132493770Y-93933433D01*
X132447506Y-93963617D01*
X132405371Y-93982866D01*
X132354279Y-93986464D01*
X132320372Y-93983073D01*
X132240375Y-93981219D01*
X132175584Y-93996761D01*
X132131586Y-94027238D01*
X132113969Y-94070188D01*
X132113866Y-94074072D01*
X132118488Y-94103454D01*
X132136194Y-94131144D01*
X132172744Y-94163960D01*
X132218326Y-94197703D01*
X132382576Y-94321004D01*
X132529857Y-94444310D01*
X132656106Y-94563894D01*
X132757258Y-94676029D01*
X132797981Y-94729300D01*
X132837903Y-94788275D01*
X132875218Y-94848275D01*
X132905275Y-94901275D01*
X132923426Y-94939247D01*
X132926666Y-94951397D01*
X132911320Y-94952699D01*
X132871281Y-94950933D01*
X132820833Y-94946964D01*
X132761415Y-94942769D01*
X132724395Y-94945547D01*
X132698574Y-94957977D01*
X132673147Y-94982320D01*
X132631295Y-95027337D01*
X132673147Y-95106848D01*
X132708437Y-95162208D01*
X132757219Y-95224585D01*
X132798405Y-95269597D01*
X132859738Y-95333646D01*
X132925013Y-95406541D01*
X132988879Y-95481784D01*
X133045984Y-95552879D01*
X133090974Y-95613330D01*
X133118498Y-95656640D01*
X133120380Y-95660394D01*
X133147153Y-95708341D01*
X133181702Y-95760891D01*
X133188148Y-95769756D01*
X133214933Y-95809121D01*
X133230150Y-95837884D01*
X133231466Y-95843397D01*
X133238175Y-95867919D01*
X133254550Y-95907364D01*
X133256754Y-95912074D01*
X133276279Y-95961043D01*
X133296558Y-96023494D01*
X133304387Y-96051685D01*
X133326732Y-96137938D01*
X133283332Y-96115290D01*
X133234186Y-96095589D01*
X133194086Y-96098690D01*
X133153868Y-96120306D01*
X133124467Y-96146412D01*
X133119032Y-96178788D01*
X133122774Y-96200291D01*
X133139762Y-96249635D01*
X133166756Y-96303658D01*
X133171902Y-96312117D01*
X133199680Y-96361463D01*
X133220122Y-96407000D01*
X133222543Y-96414166D01*
X133237521Y-96455810D01*
X133259731Y-96510062D01*
X133268625Y-96530336D01*
X133283855Y-96575008D01*
X133301843Y-96643818D01*
X133320693Y-96727361D01*
X133338509Y-96816230D01*
X133353395Y-96901018D01*
X133363457Y-96972319D01*
X133366821Y-97017558D01*
X133352660Y-97051864D01*
X133333066Y-97062539D01*
X133305515Y-97082072D01*
X133299200Y-97100733D01*
X133301839Y-97127001D01*
X133308899Y-97176805D01*
X133319092Y-97242468D01*
X133331133Y-97316314D01*
X133343734Y-97390667D01*
X133355608Y-97457850D01*
X133365469Y-97510189D01*
X133372029Y-97540006D01*
X133373507Y-97543985D01*
X133375503Y-97562506D01*
X133375984Y-97607536D01*
X133375178Y-97671763D01*
X133373312Y-97747875D01*
X133370614Y-97828559D01*
X133367309Y-97906503D01*
X133363625Y-97974395D01*
X133359789Y-98024922D01*
X133358112Y-98039766D01*
X133338880Y-98127310D01*
X133304096Y-98234282D01*
X133257547Y-98352447D01*
X133203018Y-98473567D01*
X133144292Y-98589406D01*
X133085155Y-98691728D01*
X133029393Y-98772295D01*
X133011847Y-98793299D01*
X132969592Y-98847941D01*
X132931863Y-98909269D01*
X132904379Y-98966764D01*
X132892860Y-99009908D01*
X132892800Y-99012255D01*
X132902994Y-99050426D01*
X132920260Y-99069451D01*
X132933048Y-99081171D01*
X132932271Y-99100047D01*
X132915808Y-99133323D01*
X132888763Y-99176982D01*
X132853464Y-99225033D01*
X132800618Y-99288214D01*
X132737304Y-99358407D01*
X132670599Y-99427493D01*
X132668928Y-99429156D01*
X132569743Y-99531826D01*
X132495501Y-99617579D01*
X132446835Y-99685565D01*
X132424375Y-99734935D01*
X132424629Y-99758080D01*
X132447518Y-99776917D01*
X132487108Y-99783450D01*
X132528288Y-99776984D01*
X132550464Y-99763862D01*
X132572486Y-99751404D01*
X132580223Y-99753546D01*
X132578362Y-99774018D01*
X132557639Y-99813934D01*
X132522060Y-99867758D01*
X132475630Y-99929952D01*
X132422355Y-99994979D01*
X132366239Y-100057302D01*
X132343947Y-100080182D01*
X132283273Y-100139012D01*
X132220377Y-100196938D01*
X132160749Y-100249250D01*
X132109881Y-100291237D01*
X132073263Y-100318189D01*
X132057685Y-100325766D01*
X132040385Y-100334476D01*
X132003878Y-100357054D01*
X131966561Y-100381604D01*
X131892721Y-100422211D01*
X131797598Y-100461541D01*
X131693622Y-100495078D01*
X131593221Y-100518309D01*
X131587408Y-100519306D01*
X131533551Y-100538608D01*
X131487478Y-100571165D01*
X131486374Y-100572320D01*
X131461779Y-100607673D01*
X131462307Y-100638971D01*
X131490257Y-100670276D01*
X131547928Y-100705650D01*
X131567559Y-100715755D01*
X131652835Y-100758611D01*
X131616270Y-100800422D01*
X131525269Y-100882824D01*
X131407538Y-100951845D01*
X131261849Y-101007942D01*
X131086977Y-101051567D01*
X130881693Y-101083175D01*
X130840896Y-101087678D01*
X130757819Y-101098007D01*
X130681930Y-101110418D01*
X130622755Y-101123187D01*
X130594100Y-101132387D01*
X130550173Y-101164923D01*
X130537862Y-101207708D01*
X130557122Y-101258961D01*
X130598330Y-101307897D01*
X130643527Y-101355820D01*
X130684849Y-101406709D01*
X130717307Y-101453453D01*
X130735910Y-101488943D01*
X130736843Y-101505233D01*
X130716833Y-101504718D01*
X130687167Y-101489987D01*
X130651900Y-101470873D01*
X130596750Y-101445221D01*
X130533499Y-101418503D01*
X130531953Y-101417884D01*
X130488722Y-101401032D01*
X130451966Y-101389023D01*
X130415019Y-101381232D01*
X130371213Y-101377036D01*
X130313881Y-101375814D01*
X130236355Y-101376940D01*
X130131968Y-101379794D01*
X130126148Y-101379964D01*
X129982680Y-101386160D01*
X129869895Y-101396052D01*
X129784719Y-101410639D01*
X129724075Y-101430917D01*
X129684888Y-101457882D01*
X129664083Y-101492532D01*
X129658533Y-101531521D01*
X129664886Y-101567870D01*
X129690019Y-101592017D01*
X129717800Y-101605324D01*
X129756039Y-101624781D01*
X129776160Y-101641805D01*
X129777066Y-101644735D01*
X129761455Y-101654589D01*
X129719766Y-101665506D01*
X129659714Y-101676340D01*
X129589017Y-101685942D01*
X129515391Y-101693164D01*
X129446551Y-101696859D01*
X129425008Y-101697106D01*
X129320134Y-101688017D01*
X129198937Y-101663240D01*
X129073343Y-101625766D01*
X128958883Y-101580245D01*
X128881535Y-101547429D01*
X128827597Y-101531850D01*
X128791650Y-101532976D01*
X128768275Y-101550272D01*
X128761662Y-101560786D01*
X128748691Y-101590429D01*
X128748580Y-101616119D01*
X128764652Y-101645536D01*
X128800231Y-101686360D01*
X128828800Y-101715929D01*
X128880175Y-101773364D01*
X128908404Y-101816330D01*
X128912315Y-101842490D01*
X128895847Y-101849766D01*
X128863708Y-101837660D01*
X128814283Y-101804321D01*
X128752337Y-101754224D01*
X128682635Y-101691840D01*
X128609941Y-101621643D01*
X128539022Y-101548103D01*
X128474641Y-101475695D01*
X128421564Y-101408890D01*
X128412113Y-101395724D01*
X128352639Y-101315498D01*
X128305004Y-101262247D01*
X128265801Y-101232704D01*
X128232495Y-101223609D01*
X128205598Y-101232334D01*
X128185961Y-101262246D01*
X128171736Y-101317739D01*
X128162298Y-101390517D01*
X128144728Y-101482075D01*
X128113611Y-101558893D01*
X128072498Y-101613404D01*
X128050066Y-101629526D01*
X128029364Y-101634813D01*
X128011339Y-101620966D01*
X127989576Y-101582239D01*
X127983847Y-101570229D01*
X127963145Y-101523620D01*
X127950315Y-101489787D01*
X127948266Y-101480866D01*
X127937539Y-101450256D01*
X127909454Y-101403495D01*
X127870157Y-101348813D01*
X127825795Y-101294443D01*
X127782514Y-101248616D01*
X127760409Y-101229259D01*
X127690072Y-101170427D01*
X127617110Y-101102904D01*
X127547812Y-101033182D01*
X127488464Y-100967754D01*
X127445355Y-100913111D01*
X127429691Y-100887794D01*
X127383961Y-100808830D01*
X127338124Y-100749156D01*
X127295450Y-100711380D01*
X127259209Y-100698108D01*
X127232672Y-100711948D01*
X127225707Y-100725131D01*
X127223721Y-100758488D01*
X127231057Y-100816250D01*
X127246260Y-100890718D01*
X127267874Y-100974190D01*
X127281188Y-101018671D01*
X127293930Y-101064170D01*
X127299370Y-101094007D01*
X127298658Y-101099552D01*
X127285069Y-101091554D01*
X127256501Y-101064555D01*
X127231671Y-101038136D01*
X127181236Y-100970648D01*
X127128495Y-100880420D01*
X127078513Y-100777768D01*
X127036355Y-100673008D01*
X127009157Y-100584931D01*
X126992150Y-100522156D01*
X126975665Y-100469316D01*
X126963536Y-100438447D01*
X126956555Y-100422086D01*
X126948747Y-100396167D01*
X126939374Y-100357051D01*
X126927696Y-100301100D01*
X126912973Y-100224674D01*
X126894467Y-100124135D01*
X126871436Y-99995843D01*
X126856605Y-99912317D01*
X126840512Y-99826293D01*
X126825008Y-99752070D01*
X126811571Y-99696135D01*
X126801678Y-99664976D01*
X126799433Y-99661227D01*
X126772610Y-99651650D01*
X126736767Y-99651342D01*
X126698354Y-99668176D01*
X126671044Y-99709891D01*
X126653968Y-99778935D01*
X126646258Y-99877754D01*
X126645688Y-99907779D01*
X126642996Y-99975272D01*
X126637064Y-100032395D01*
X126629086Y-100068284D01*
X126627680Y-100071366D01*
X126605817Y-100096244D01*
X126568525Y-100127025D01*
X126527669Y-100155082D01*
X126495112Y-100171789D01*
X126487425Y-100173366D01*
X126486929Y-100158965D01*
X126495554Y-100122126D01*
X126504365Y-100092933D01*
X126519379Y-100022876D01*
X126528825Y-99929808D01*
X126532695Y-99824125D01*
X126530980Y-99716224D01*
X126523672Y-99616500D01*
X126510762Y-99535351D01*
X126504828Y-99512966D01*
X126479273Y-99408941D01*
X126457378Y-99276505D01*
X126439901Y-99120986D01*
X126429624Y-98983799D01*
X126419738Y-98818699D01*
X126463993Y-98818699D01*
X126528660Y-98808510D01*
X126612661Y-98780352D01*
X126709235Y-98737839D01*
X126811619Y-98684588D01*
X126913050Y-98624213D01*
X127006765Y-98560329D01*
X127086001Y-98496550D01*
X127111340Y-98472664D01*
X127178347Y-98401116D01*
X127244967Y-98321778D01*
X127303761Y-98244097D01*
X127347289Y-98177522D01*
X127355533Y-98162533D01*
X127379588Y-98120446D01*
X127398659Y-98094531D01*
X127404516Y-98090566D01*
X127423301Y-98100658D01*
X127457277Y-98126152D01*
X127474772Y-98140678D01*
X127512393Y-98170913D01*
X127539395Y-98189139D01*
X127545348Y-98191478D01*
X127565440Y-98200649D01*
X127602274Y-98223000D01*
X127620982Y-98235385D01*
X127734601Y-98301436D01*
X127872987Y-98364140D01*
X128027039Y-98420248D01*
X128187659Y-98466512D01*
X128345744Y-98499684D01*
X128373838Y-98504105D01*
X128587961Y-98520563D01*
X128806501Y-98508655D01*
X129023059Y-98469851D01*
X129231236Y-98405625D01*
X129424633Y-98317449D01*
X129565400Y-98229948D01*
X129645819Y-98167085D01*
X129728493Y-98092755D01*
X129808178Y-98012692D01*
X129879629Y-97932633D01*
X129937604Y-97858309D01*
X129976858Y-97795457D01*
X129988880Y-97766850D01*
X130007754Y-97724212D01*
X130023475Y-97701012D01*
X130043774Y-97664517D01*
X130066528Y-97602483D01*
X130089701Y-97522938D01*
X130111255Y-97433910D01*
X130129154Y-97343427D01*
X130141361Y-97259517D01*
X130144626Y-97223543D01*
X130144885Y-97066083D01*
X130127164Y-96901674D01*
X130093502Y-96748001D01*
X130087349Y-96727433D01*
X130054489Y-96639283D01*
X130007879Y-96536566D01*
X129953911Y-96431941D01*
X129898975Y-96338069D01*
X129866223Y-96289427D01*
X129772466Y-96174986D01*
X129660116Y-96060941D01*
X129538204Y-95955280D01*
X129415763Y-95865993D01*
X129330163Y-95815180D01*
X129272000Y-95784123D01*
X129224622Y-95757857D01*
X129196893Y-95741317D01*
X129194696Y-95739771D01*
X129166664Y-95725519D01*
X129114342Y-95704522D01*
X129045914Y-95679640D01*
X128969565Y-95653737D01*
X128893480Y-95629674D01*
X128825845Y-95610314D01*
X128820333Y-95608869D01*
X128760701Y-95597102D01*
X128679176Y-95585976D01*
X128587722Y-95576942D01*
X128519766Y-95572411D01*
X128425959Y-95566109D01*
X128360861Y-95558291D01*
X128351506Y-95555831D01*
X128351506Y-95790971D01*
X128479496Y-95793113D01*
X128604711Y-95803004D01*
X128715317Y-95820320D01*
X128748203Y-95828027D01*
X128834958Y-95852695D01*
X128919878Y-95880324D01*
X128995110Y-95908034D01*
X129052806Y-95932943D01*
X129084133Y-95951312D01*
X129116390Y-95970162D01*
X129132934Y-95973899D01*
X129163200Y-95983366D01*
X129210954Y-96008194D01*
X129266894Y-96043028D01*
X129321719Y-96082512D01*
X129322167Y-96082862D01*
X129363833Y-96115592D01*
X129414471Y-96155479D01*
X129431140Y-96168633D01*
X129571785Y-96298550D01*
X129691588Y-96447729D01*
X129787922Y-96611060D01*
X129858156Y-96783436D01*
X129899662Y-96959747D01*
X129910416Y-97099966D01*
X129907956Y-97187646D01*
X129901147Y-97280217D01*
X129891365Y-97359844D01*
X129889489Y-97370900D01*
X129847766Y-97518782D01*
X129777693Y-97667513D01*
X129683840Y-97809984D01*
X129570777Y-97939089D01*
X129464525Y-98031837D01*
X129351874Y-98103467D01*
X129212098Y-98168939D01*
X129051765Y-98225535D01*
X128900267Y-98265525D01*
X128808983Y-98279538D01*
X128697930Y-98286635D01*
X128577159Y-98287118D01*
X128456725Y-98281286D01*
X128346681Y-98269440D01*
X128257080Y-98251880D01*
X128236133Y-98245689D01*
X128174860Y-98227136D01*
X128122410Y-98214017D01*
X128091734Y-98209318D01*
X128051497Y-98199582D01*
X128020369Y-98183161D01*
X127980205Y-98160686D01*
X127927310Y-98137652D01*
X127914765Y-98133029D01*
X127808564Y-98083573D01*
X127695179Y-98010050D01*
X127580245Y-97918103D01*
X127469398Y-97813377D01*
X127368274Y-97701516D01*
X127282509Y-97588166D01*
X127217738Y-97478969D01*
X127186458Y-97403599D01*
X127165421Y-97345302D01*
X127138723Y-97280142D01*
X127130112Y-97260833D01*
X127111134Y-97197211D01*
X127099125Y-97110218D01*
X127093801Y-97008134D01*
X127094876Y-96899244D01*
X127102066Y-96791828D01*
X127115087Y-96694169D01*
X127133652Y-96614549D01*
X127153989Y-96566566D01*
X127173979Y-96528895D01*
X127179762Y-96515766D01*
X127228723Y-96409102D01*
X127286408Y-96316369D01*
X127360807Y-96225838D01*
X127417079Y-96167412D01*
X127478937Y-96108539D01*
X127539113Y-96055860D01*
X127589805Y-96015963D01*
X127617744Y-95997954D01*
X127673758Y-95968724D01*
X127728036Y-95939945D01*
X127734064Y-95936706D01*
X127796369Y-95909093D01*
X127884100Y-95878474D01*
X127989264Y-95847353D01*
X128103871Y-95818234D01*
X128134533Y-95811232D01*
X128232574Y-95796903D01*
X128351506Y-95790971D01*
X128351506Y-95555831D01*
X128326483Y-95549248D01*
X128321400Y-95543748D01*
X128324085Y-95519493D01*
X128330741Y-95470614D01*
X128340144Y-95405953D01*
X128344489Y-95377057D01*
X128358480Y-95174028D01*
X128339996Y-94970310D01*
X128289778Y-94771807D01*
X128257539Y-94686966D01*
X128190363Y-94544084D01*
X128120593Y-94426477D01*
X128080058Y-94371876D01*
X128017116Y-94295163D01*
X128111374Y-94182031D01*
X128153965Y-94133785D01*
X128215263Y-94068199D01*
X128289458Y-93991298D01*
X128370741Y-93909107D01*
X128450754Y-93830129D01*
X128534760Y-93747831D01*
X128597441Y-93684842D01*
X128642066Y-93637189D01*
X128671904Y-93600899D01*
X128690223Y-93571999D01*
X128700294Y-93546515D01*
X128705357Y-93520683D01*
X128716164Y-93466759D01*
X128728960Y-93443970D01*
X128742143Y-93453194D01*
X128753871Y-93493990D01*
X128756882Y-93557755D01*
X128748144Y-93643302D01*
X128728980Y-93741175D01*
X128708695Y-93816541D01*
X128695764Y-93881375D01*
X128704569Y-93921743D01*
X128735939Y-93939823D01*
X128756301Y-93941292D01*
X128794425Y-93931431D01*
X128836426Y-93899644D01*
X128871133Y-93862647D01*
X129076703Y-93650614D01*
X129309090Y-93456399D01*
X129564852Y-93282608D01*
X129827866Y-93138049D01*
X129890400Y-93109172D01*
X129957004Y-93081391D01*
X130019959Y-93057547D01*
X130071546Y-93040479D01*
X130104046Y-93033028D01*
X130104046Y-92793440D01*
X130103754Y-92793501D01*
X130009923Y-92824523D01*
X129899203Y-92869201D01*
X129777288Y-92925045D01*
X129649873Y-92989567D01*
X129522652Y-93060278D01*
X129499736Y-93073754D01*
X129435982Y-93110900D01*
X129383016Y-93140474D01*
X129347557Y-93158800D01*
X129336709Y-93162966D01*
X129316562Y-93174458D01*
X129302933Y-93188366D01*
X129273863Y-93209896D01*
X129258075Y-93213766D01*
X129234906Y-93223995D01*
X129193599Y-93251282D01*
X129141629Y-93290527D01*
X129120650Y-93307507D01*
X129007004Y-93401247D01*
X128991633Y-93354073D01*
X128954360Y-93274906D01*
X128900618Y-93205762D01*
X128837124Y-93152447D01*
X128770596Y-93120768D01*
X128715452Y-93115331D01*
X128690683Y-93123690D01*
X128665247Y-93145458D01*
X128636249Y-93184753D01*
X128600797Y-93245696D01*
X128555996Y-93332406D01*
X128539263Y-93366166D01*
X128504647Y-93428789D01*
X128460493Y-93493253D01*
X128402879Y-93564342D01*
X128327880Y-93646837D01*
X128231576Y-93745520D01*
X128212314Y-93764736D01*
X128141506Y-93836186D01*
X128071122Y-93909004D01*
X128008803Y-93975173D01*
X127962194Y-94026677D01*
X127958067Y-94031436D01*
X127915846Y-94077970D01*
X127880679Y-94112251D01*
X127859258Y-94127837D01*
X127857557Y-94128166D01*
X127836415Y-94117961D01*
X127798722Y-94091425D01*
X127760051Y-94060433D01*
X127713863Y-94024609D01*
X127675126Y-94000058D01*
X127655412Y-93992699D01*
X127624951Y-93983089D01*
X127590716Y-93962295D01*
X127548434Y-93938761D01*
X127482046Y-93911166D01*
X127400565Y-93882529D01*
X127313003Y-93855866D01*
X127228373Y-93834195D01*
X127177353Y-93823894D01*
X127069408Y-93813361D01*
X126942343Y-93813778D01*
X126926010Y-93815092D01*
X126926010Y-94028629D01*
X127024183Y-94030683D01*
X127118259Y-94035589D01*
X127188877Y-94042525D01*
X127246444Y-94053388D01*
X127301369Y-94070069D01*
X127355600Y-94090993D01*
X127524971Y-94168597D01*
X127666753Y-94253192D01*
X127787137Y-94349330D01*
X127892312Y-94461564D01*
X127935670Y-94517633D01*
X128027741Y-94670647D01*
X128095202Y-94841432D01*
X128136447Y-95022906D01*
X128149869Y-95207984D01*
X128133862Y-95389585D01*
X128133643Y-95390823D01*
X128116128Y-95480877D01*
X128099805Y-95542085D01*
X128082551Y-95579306D01*
X128062243Y-95597397D01*
X128041613Y-95601366D01*
X128004480Y-95607125D01*
X127944937Y-95622439D01*
X127872053Y-95644362D01*
X127794895Y-95669950D01*
X127722528Y-95696257D01*
X127664020Y-95720337D01*
X127641390Y-95731372D01*
X127585854Y-95763970D01*
X127531635Y-95799677D01*
X127530715Y-95800333D01*
X127493376Y-95824876D01*
X127467863Y-95837831D01*
X127464796Y-95838433D01*
X127443699Y-95849224D01*
X127404455Y-95878072D01*
X127353453Y-95919687D01*
X127297081Y-95968783D01*
X127241729Y-96020069D01*
X127221413Y-96039905D01*
X127154929Y-96112035D01*
X127093302Y-96189727D01*
X127043714Y-96263307D01*
X127015812Y-96316799D01*
X126995182Y-96354319D01*
X126974098Y-96360013D01*
X126949200Y-96337966D01*
X126924183Y-96316648D01*
X126912130Y-96312566D01*
X126889326Y-96303239D01*
X126852649Y-96280083D01*
X126842236Y-96272568D01*
X126782908Y-96238089D01*
X126699055Y-96202037D01*
X126599712Y-96167415D01*
X126493911Y-96137227D01*
X126390683Y-96114478D01*
X126344591Y-96107068D01*
X126268362Y-96095200D01*
X126216320Y-96082440D01*
X126178878Y-96065402D01*
X126166113Y-96055681D01*
X126166113Y-96300135D01*
X126358668Y-96321664D01*
X126552580Y-96375036D01*
X126745737Y-96460279D01*
X126839133Y-96513484D01*
X126876325Y-96545168D01*
X126885670Y-96581112D01*
X126885298Y-96585233D01*
X126877803Y-96670160D01*
X126872498Y-96769372D01*
X126869450Y-96874719D01*
X126868727Y-96978052D01*
X126870393Y-97071220D01*
X126874517Y-97146075D01*
X126880355Y-97190915D01*
X126909869Y-97309247D01*
X126946403Y-97424523D01*
X126986099Y-97525461D01*
X127014270Y-97582566D01*
X127042857Y-97633986D01*
X127067046Y-97678064D01*
X127075023Y-97692871D01*
X127106784Y-97745478D01*
X127147742Y-97804289D01*
X127187851Y-97855332D01*
X127206207Y-97875326D01*
X127227731Y-97902504D01*
X127234182Y-97932331D01*
X127224261Y-97971556D01*
X127196669Y-98026926D01*
X127167438Y-98076769D01*
X127052225Y-98236295D01*
X126915089Y-98372376D01*
X126759498Y-98483158D01*
X126588915Y-98566789D01*
X126406807Y-98621414D01*
X126216639Y-98645183D01*
X126106136Y-98644223D01*
X125987372Y-98634513D01*
X125889201Y-98618383D01*
X125798480Y-98592363D01*
X125702065Y-98552984D01*
X125630032Y-98518538D01*
X125462070Y-98416972D01*
X125314717Y-98290468D01*
X125190895Y-98142349D01*
X125093527Y-97975937D01*
X125042753Y-97850582D01*
X125023245Y-97789387D01*
X125009867Y-97736227D01*
X125001446Y-97681951D01*
X124996811Y-97617406D01*
X124994792Y-97533441D01*
X124994358Y-97472500D01*
X124994335Y-97376954D01*
X124996024Y-97306416D01*
X125000711Y-97252032D01*
X125009686Y-97204944D01*
X125024236Y-97156298D01*
X125045650Y-97097237D01*
X125051007Y-97083033D01*
X125081609Y-97007487D01*
X125114074Y-96936064D01*
X125143017Y-96880329D01*
X125152607Y-96864712D01*
X125183161Y-96818271D01*
X125207856Y-96779617D01*
X125213889Y-96769763D01*
X125260885Y-96706780D01*
X125330409Y-96634588D01*
X125415328Y-96560322D01*
X125451682Y-96531880D01*
X125617699Y-96426320D01*
X125793517Y-96352491D01*
X125977025Y-96310420D01*
X126166113Y-96300135D01*
X126166113Y-96055681D01*
X126146448Y-96040704D01*
X126140083Y-96034885D01*
X126097645Y-95988638D01*
X126045883Y-95922533D01*
X125991710Y-95846432D01*
X125942042Y-95770196D01*
X125903796Y-95703686D01*
X125894376Y-95684506D01*
X125851437Y-95564873D01*
X125821639Y-95426810D01*
X125805234Y-95278826D01*
X125802475Y-95129430D01*
X125813612Y-94987134D01*
X125838898Y-94860446D01*
X125867614Y-94780100D01*
X125971490Y-94585900D01*
X126093099Y-94420546D01*
X126232460Y-94284017D01*
X126389588Y-94176296D01*
X126449543Y-94145031D01*
X126572823Y-94090993D01*
X126685507Y-94055136D01*
X126799326Y-94035126D01*
X126926010Y-94028629D01*
X126926010Y-93815092D01*
X126808866Y-93824517D01*
X126681684Y-93844951D01*
X126661333Y-93849405D01*
X126583998Y-93870398D01*
X126498914Y-93898749D01*
X126415097Y-93930887D01*
X126341565Y-93963242D01*
X126287333Y-93992244D01*
X126270533Y-94004152D01*
X126242584Y-94022627D01*
X126230220Y-94026566D01*
X126205839Y-94038426D01*
X126164175Y-94070605D01*
X126110321Y-94117998D01*
X126049369Y-94175504D01*
X125986412Y-94238019D01*
X125926545Y-94300441D01*
X125874860Y-94357666D01*
X125836449Y-94404592D01*
X125816407Y-94436115D01*
X125814666Y-94442926D01*
X125805374Y-94463204D01*
X125782346Y-94498082D01*
X125775379Y-94507568D01*
X125751588Y-94548501D01*
X125722566Y-94611804D01*
X125691526Y-94688672D01*
X125661682Y-94770298D01*
X125636250Y-94847877D01*
X125618442Y-94912603D01*
X125611474Y-94955668D01*
X125611466Y-94956642D01*
X125605631Y-95007599D01*
X125593009Y-95056592D01*
X125584415Y-95107653D01*
X125583154Y-95183143D01*
X125588317Y-95274644D01*
X125598993Y-95373736D01*
X125614273Y-95472002D01*
X125633249Y-95561023D01*
X125655009Y-95632379D01*
X125655298Y-95633132D01*
X125711341Y-95768644D01*
X125766804Y-95880526D01*
X125826683Y-95978550D01*
X125846410Y-96006933D01*
X125912102Y-96098909D01*
X125748482Y-96151998D01*
X125543127Y-96235050D01*
X125359603Y-96343915D01*
X125197781Y-96478714D01*
X125057532Y-96639571D01*
X124938728Y-96826608D01*
X124857725Y-96998366D01*
X124818922Y-97119874D01*
X124792097Y-97260048D01*
X124777751Y-97409109D01*
X124776385Y-97557276D01*
X124788499Y-97694770D01*
G37*
X124788499Y-97694770D02*
X124814595Y-97811810D01*
X124815867Y-97815718D01*
X124840018Y-97885390D01*
X124865283Y-97952854D01*
X124883592Y-97997433D01*
X124905780Y-98050619D01*
X124923368Y-98098282D01*
X124926291Y-98107500D01*
X124940324Y-98141935D01*
X124965554Y-98183443D01*
X125006045Y-98237992D01*
X125062374Y-98307361D01*
X125099271Y-98353164D01*
X125130434Y-98394216D01*
X125138574Y-98405775D01*
X125164584Y-98434984D01*
X125209868Y-98477465D01*
X125266416Y-98526427D01*
X125326218Y-98575080D01*
X125381263Y-98616632D01*
X125411419Y-98637072D01*
X125572709Y-98722508D01*
X125750736Y-98789054D01*
X125932887Y-98832516D01*
X126039300Y-98845800D01*
X126109341Y-98851168D01*
X126154978Y-98858500D01*
X126182171Y-98874156D01*
X126196883Y-98904497D01*
X126205076Y-98955884D01*
X126212288Y-99030366D01*
X126222106Y-99118781D01*
X126235294Y-99221008D01*
X126250428Y-99327419D01*
X126266082Y-99428384D01*
X126280831Y-99514274D01*
X126292497Y-99572233D01*
X126308552Y-99707068D01*
X126299512Y-99856797D01*
X126270182Y-99998375D01*
X126250874Y-100069871D01*
X126233474Y-100136545D01*
X126221353Y-100185443D01*
X126220231Y-100190299D01*
X126207769Y-100241407D01*
X126196109Y-100283696D01*
X126195685Y-100285068D01*
X126196154Y-100317663D01*
X126220588Y-100355480D01*
X126238007Y-100373968D01*
X126282328Y-100410321D01*
X126329622Y-100426708D01*
X126370535Y-100430330D01*
X126473859Y-100430847D01*
X126550326Y-100422876D01*
X126606095Y-100405483D01*
X126631292Y-100390776D01*
X126662793Y-100369870D01*
X126678661Y-100362313D01*
X126679075Y-100362713D01*
X126683594Y-100380308D01*
X126695052Y-100423066D01*
X126711430Y-100483489D01*
X126721522Y-100520499D01*
X126744046Y-100603247D01*
X126766942Y-100687864D01*
X126786108Y-100759180D01*
X126790194Y-100774500D01*
X126807900Y-100832778D01*
X126826144Y-100879913D01*
X126838091Y-100901500D01*
X126858060Y-100934219D01*
X126879183Y-100980482D01*
X126881384Y-100986166D01*
X126921097Y-101065766D01*
X126977386Y-101144967D01*
X127044773Y-101219007D01*
X127117779Y-101283127D01*
X127190924Y-101332564D01*
X127258729Y-101362558D01*
X127315715Y-101368348D01*
X127320236Y-101367495D01*
X127363204Y-101351706D01*
X127390370Y-101332211D01*
X127414284Y-101311551D01*
X127424809Y-101307899D01*
X127441757Y-101319342D01*
X127476579Y-101350316D01*
X127523832Y-101395792D01*
X127566829Y-101439133D01*
X127625316Y-101500603D01*
X127665491Y-101548343D01*
X127693468Y-101592085D01*
X127715362Y-101641557D01*
X127737287Y-101706490D01*
X127739745Y-101714300D01*
X127767965Y-101793114D01*
X127797352Y-101856205D01*
X127823927Y-101895094D01*
X127825197Y-101896333D01*
X127880925Y-101927176D01*
X127950345Y-101933058D01*
X128023684Y-101913439D01*
X128035086Y-101907920D01*
X128089396Y-101875205D01*
X128151986Y-101830808D01*
X128211746Y-101783257D01*
X128257569Y-101741084D01*
X128268916Y-101728366D01*
X128283885Y-101711733D01*
X128298171Y-101706769D01*
X128317958Y-101716518D01*
X128349427Y-101744027D01*
X128398733Y-101792310D01*
X128508979Y-101888005D01*
X128629227Y-101968951D01*
X128751886Y-102031018D01*
X128869365Y-102070079D01*
X128928003Y-102080155D01*
X129007492Y-102079088D01*
X129063205Y-102055494D01*
X129097995Y-102007769D01*
X129107227Y-101979457D01*
X129120598Y-101938097D01*
X129136990Y-101923024D01*
X129158027Y-101925264D01*
X129261249Y-101953361D01*
X129343435Y-101971475D01*
X129415288Y-101981440D01*
X129487509Y-101985091D01*
X129507746Y-101985233D01*
X129622999Y-101977268D01*
X129731738Y-101955063D01*
X129823554Y-101921152D01*
X129862484Y-101898832D01*
X129901760Y-101875762D01*
X129957978Y-101847113D01*
X130001558Y-101826901D01*
X130057857Y-101799320D01*
X130090845Y-101771761D01*
X130108407Y-101733355D01*
X130118427Y-101673232D01*
X130119459Y-101664377D01*
X130124172Y-101642924D01*
X130137214Y-101629951D01*
X130166069Y-101622695D01*
X130218219Y-101618390D01*
X130248120Y-101616833D01*
X130344054Y-101619012D01*
X130436851Y-101633301D01*
X130516427Y-101657445D01*
X130572700Y-101689194D01*
X130572933Y-101689391D01*
X130622160Y-101723990D01*
X130683134Y-101757223D01*
X130744073Y-101783554D01*
X130793197Y-101797446D01*
X130804792Y-101798357D01*
X130863751Y-101781812D01*
X130916031Y-101738194D01*
X130957703Y-101674184D01*
X130984843Y-101596464D01*
X130993524Y-101511714D01*
X130991382Y-101480829D01*
X130984570Y-101427733D01*
X130978388Y-101386706D01*
X130976337Y-101375943D01*
X130984314Y-101359419D01*
X131019066Y-101345067D01*
X131072466Y-101333316D01*
X131131074Y-101321834D01*
X131178329Y-101311211D01*
X131199466Y-101305243D01*
X131231301Y-101294292D01*
X131278911Y-101278853D01*
X131292599Y-101274537D01*
X131398204Y-101233839D01*
X131515121Y-101176387D01*
X131630582Y-101109238D01*
X131731816Y-101039450D01*
X131762775Y-101014655D01*
X131817749Y-100963117D01*
X131875433Y-100900542D01*
X131929313Y-100834968D01*
X131972874Y-100774429D01*
X131999604Y-100726963D01*
X132002728Y-100718610D01*
X132022126Y-100690846D01*
X132061224Y-100654263D01*
X132101950Y-100623579D01*
X132205636Y-100544463D01*
X132312226Y-100447859D01*
X132418576Y-100338046D01*
X132521546Y-100219305D01*
X132617992Y-100095914D01*
X132704773Y-99972152D01*
X132778746Y-99852300D01*
X132836769Y-99740637D01*
X132875701Y-99641442D01*
X132892398Y-99558994D01*
X132892800Y-99546491D01*
X132904472Y-99501964D01*
X132932096Y-99460242D01*
X133002440Y-99378218D01*
X133066514Y-99285497D01*
X133120898Y-99188948D01*
X133162169Y-99095439D01*
X133186908Y-99011837D01*
X133191693Y-98945010D01*
X133191071Y-98940331D01*
X133189900Y-98888733D01*
X133204793Y-98835150D01*
X133238773Y-98771661D01*
X133277135Y-98714831D01*
X133307636Y-98670011D01*
X133327951Y-98636275D01*
X133333066Y-98623913D01*
X133341152Y-98603987D01*
X133362286Y-98564086D01*
X133389971Y-98516115D01*
X133430640Y-98436200D01*
X133473332Y-98331866D01*
X133514894Y-98212162D01*
X133552173Y-98086135D01*
X133580864Y-97968264D01*
X133595571Y-97864795D01*
X133601097Y-97744024D01*
X133597830Y-97617960D01*
X133586159Y-97498614D01*
X133566474Y-97397995D01*
X133561872Y-97382024D01*
X133546691Y-97328703D01*
X133542961Y-97292404D01*
X133551625Y-97257950D01*
X133572399Y-97212690D01*
X133598621Y-97132699D01*
X133613063Y-97030414D01*
X133615212Y-96915477D01*
X133604555Y-96797531D01*
X133596824Y-96752833D01*
X133579190Y-96672523D01*
X133557566Y-96585231D01*
X133544279Y-96536653D01*
X133528437Y-96478407D01*
X133522817Y-96443553D01*
X133527125Y-96423293D01*
X133540010Y-96409653D01*
X133575193Y-96361265D01*
X133593673Y-96288638D01*
X133596436Y-96196416D01*
X133584469Y-96089238D01*
X133558759Y-95971748D01*
X133520292Y-95848586D01*
X133470055Y-95724395D01*
X133409034Y-95603815D01*
X133347752Y-95505182D01*
X133319765Y-95461200D01*
X133302220Y-95427510D01*
X133299200Y-95417123D01*
X133286735Y-95393412D01*
X133278033Y-95386308D01*
X133251463Y-95363371D01*
X133218426Y-95326997D01*
X133184481Y-95284607D01*
X133155188Y-95243621D01*
X133136106Y-95211462D01*
X133132793Y-95195550D01*
X133134700Y-95194966D01*
X133173319Y-95179433D01*
X133200542Y-95136134D01*
X133213716Y-95070025D01*
X133214533Y-95045853D01*
X133204288Y-94960692D01*
X133176058Y-94859315D01*
X133133598Y-94751472D01*
X133080665Y-94646912D01*
X133030625Y-94568433D01*
X132999912Y-94530632D01*
X132953914Y-94480007D01*
X132897693Y-94421490D01*
X132836313Y-94360017D01*
X132774836Y-94300520D01*
X132718326Y-94247935D01*
X132671847Y-94207196D01*
X132640460Y-94183235D01*
X132630975Y-94178966D01*
X132622156Y-94169334D01*
X132627793Y-94137836D01*
X132648619Y-94080568D01*
X132650091Y-94076913D01*
X132682408Y-93968427D01*
X132700621Y-93842569D01*
X132701160Y-93835310D01*
X132705151Y-93762246D01*
X132701912Y-93710850D01*
X132686653Y-93677311D01*
X132654585Y-93657822D01*
X132600920Y-93648573D01*
X132520867Y-93645755D01*
X132462593Y-93645566D01*
X132377526Y-93644872D01*
X132316999Y-93641732D01*
X132271697Y-93634562D01*
X132232304Y-93621776D01*
X132189506Y-93601790D01*
X132181599Y-93597757D01*
X132121887Y-93567277D01*
X132066297Y-93539186D01*
X132037666Y-93524910D01*
X131994284Y-93502695D01*
X131961466Y-93484521D01*
X131917075Y-93460208D01*
X131857249Y-93430585D01*
X131792622Y-93400551D01*
X131733826Y-93375008D01*
X131691494Y-93358854D01*
X131684121Y-93356702D01*
X131643489Y-93339546D01*
X131621421Y-93322171D01*
X131593188Y-93301624D01*
X131579392Y-93298433D01*
X131550985Y-93287200D01*
X131547340Y-93257906D01*
X131562552Y-93226961D01*
X131585431Y-93172358D01*
X131584153Y-93116996D01*
X131559013Y-93073405D01*
X131558958Y-93073355D01*
X131530172Y-93055905D01*
X131478204Y-93031912D01*
X131412058Y-93005374D01*
X131377595Y-92992794D01*
X131309068Y-92969913D01*
X131249266Y-92954002D01*
X131188090Y-92943411D01*
X131115440Y-92936492D01*
X131021214Y-92931594D01*
X130996937Y-92930637D01*
X130865697Y-92928006D01*
X130756282Y-92931598D01*
X130657127Y-92941971D01*
X130611025Y-92949306D01*
X130539903Y-92961320D01*
X130480031Y-92970654D01*
X130440233Y-92975968D01*
X130430599Y-92976700D01*
X130411534Y-92961976D01*
X130391319Y-92924775D01*
X130384040Y-92904733D01*
X130346818Y-92837238D01*
X130287646Y-92793968D01*
X130210442Y-92777284D01*
X130175000Y-92778623D01*
X130104046Y-92793440D01*
X130104046Y-93033028D01*
X130110869Y-93033924D01*
X130114940Y-93060076D01*
X130095106Y-93100361D01*
X130055070Y-93149301D01*
X129998540Y-93201421D01*
X129996286Y-93203253D01*
X129936295Y-93256495D01*
X129904475Y-93298119D01*
X129899043Y-93332305D01*
X129918215Y-93363233D01*
X129925233Y-93369734D01*
X129977447Y-93399074D01*
X130044889Y-93407499D01*
X130130923Y-93394813D01*
X130238916Y-93360817D01*
X130268133Y-93349600D01*
X130441329Y-93285861D01*
X130596471Y-93239541D01*
X130743078Y-93208396D01*
X130890669Y-93190180D01*
X130964192Y-93185393D01*
X131050461Y-93182399D01*
X131128527Y-93181883D01*
X131189925Y-93183759D01*
X131226188Y-93187941D01*
X131226659Y-93188063D01*
X131275666Y-93201124D01*
X131224866Y-93223615D01*
X131178019Y-93239934D01*
X131139377Y-93246869D01*
X131108670Y-93258534D01*
X131065880Y-93287821D01*
X131033544Y-93315995D01*
X130984814Y-93368423D01*
X130963565Y-93407610D01*
X130971070Y-93435269D01*
X131008603Y-93453111D01*
X131077437Y-93462851D01*
X131144918Y-93465764D01*
X131255341Y-93474697D01*
X131369992Y-93498076D01*
X131493185Y-93537492D01*
X131629231Y-93594534D01*
X131782442Y-93670792D01*
X131944533Y-93760592D01*
X132054472Y-93821615D01*
X132144106Y-93865626D01*
X132220619Y-93895396D01*
X132291196Y-93913695D01*
X132363021Y-93923293D01*
X132367318Y-93923636D01*
X132493770Y-93933433D01*
X132447506Y-93963617D01*
X132405371Y-93982866D01*
X132354279Y-93986464D01*
X132320372Y-93983073D01*
X132240375Y-93981219D01*
X132175584Y-93996761D01*
X132131586Y-94027238D01*
X132113969Y-94070188D01*
X132113866Y-94074072D01*
X132118488Y-94103454D01*
X132136194Y-94131144D01*
X132172744Y-94163960D01*
X132218326Y-94197703D01*
X132382576Y-94321004D01*
X132529857Y-94444310D01*
X132656106Y-94563894D01*
X132757258Y-94676029D01*
X132797981Y-94729300D01*
X132837903Y-94788275D01*
X132875218Y-94848275D01*
X132905275Y-94901275D01*
X132923426Y-94939247D01*
X132926666Y-94951397D01*
X132911320Y-94952699D01*
X132871281Y-94950933D01*
X132820833Y-94946964D01*
X132761415Y-94942769D01*
X132724395Y-94945547D01*
X132698574Y-94957977D01*
X132673147Y-94982320D01*
X132631295Y-95027337D01*
X132673147Y-95106848D01*
X132708437Y-95162208D01*
X132757219Y-95224585D01*
X132798405Y-95269597D01*
X132859738Y-95333646D01*
X132925013Y-95406541D01*
X132988879Y-95481784D01*
X133045984Y-95552879D01*
X133090974Y-95613330D01*
X133118498Y-95656640D01*
X133120380Y-95660394D01*
X133147153Y-95708341D01*
X133181702Y-95760891D01*
X133188148Y-95769756D01*
X133214933Y-95809121D01*
X133230150Y-95837884D01*
X133231466Y-95843397D01*
X133238175Y-95867919D01*
X133254550Y-95907364D01*
X133256754Y-95912074D01*
X133276279Y-95961043D01*
X133296558Y-96023494D01*
X133304387Y-96051685D01*
X133326732Y-96137938D01*
X133283332Y-96115290D01*
X133234186Y-96095589D01*
X133194086Y-96098690D01*
X133153868Y-96120306D01*
X133124467Y-96146412D01*
X133119032Y-96178788D01*
X133122774Y-96200291D01*
X133139762Y-96249635D01*
X133166756Y-96303658D01*
X133171902Y-96312117D01*
X133199680Y-96361463D01*
X133220122Y-96407000D01*
X133222543Y-96414166D01*
X133237521Y-96455810D01*
X133259731Y-96510062D01*
X133268625Y-96530336D01*
X133283855Y-96575008D01*
X133301843Y-96643818D01*
X133320693Y-96727361D01*
X133338509Y-96816230D01*
X133353395Y-96901018D01*
X133363457Y-96972319D01*
X133366821Y-97017558D01*
X133352660Y-97051864D01*
X133333066Y-97062539D01*
X133305515Y-97082072D01*
X133299200Y-97100733D01*
X133301839Y-97127001D01*
X133308899Y-97176805D01*
X133319092Y-97242468D01*
X133331133Y-97316314D01*
X133343734Y-97390667D01*
X133355608Y-97457850D01*
X133365469Y-97510189D01*
X133372029Y-97540006D01*
X133373507Y-97543985D01*
X133375503Y-97562506D01*
X133375984Y-97607536D01*
X133375178Y-97671763D01*
X133373312Y-97747875D01*
X133370614Y-97828559D01*
X133367309Y-97906503D01*
X133363625Y-97974395D01*
X133359789Y-98024922D01*
X133358112Y-98039766D01*
X133338880Y-98127310D01*
X133304096Y-98234282D01*
X133257547Y-98352447D01*
X133203018Y-98473567D01*
X133144292Y-98589406D01*
X133085155Y-98691728D01*
X133029393Y-98772295D01*
X133011847Y-98793299D01*
X132969592Y-98847941D01*
X132931863Y-98909269D01*
X132904379Y-98966764D01*
X132892860Y-99009908D01*
X132892800Y-99012255D01*
X132902994Y-99050426D01*
X132920260Y-99069451D01*
X132933048Y-99081171D01*
X132932271Y-99100047D01*
X132915808Y-99133323D01*
X132888763Y-99176982D01*
X132853464Y-99225033D01*
X132800618Y-99288214D01*
X132737304Y-99358407D01*
X132670599Y-99427493D01*
X132668928Y-99429156D01*
X132569743Y-99531826D01*
X132495501Y-99617579D01*
X132446835Y-99685565D01*
X132424375Y-99734935D01*
X132424629Y-99758080D01*
X132447518Y-99776917D01*
X132487108Y-99783450D01*
X132528288Y-99776984D01*
X132550464Y-99763862D01*
X132572486Y-99751404D01*
X132580223Y-99753546D01*
X132578362Y-99774018D01*
X132557639Y-99813934D01*
X132522060Y-99867758D01*
X132475630Y-99929952D01*
X132422355Y-99994979D01*
X132366239Y-100057302D01*
X132343947Y-100080182D01*
X132283273Y-100139012D01*
X132220377Y-100196938D01*
X132160749Y-100249250D01*
X132109881Y-100291237D01*
X132073263Y-100318189D01*
X132057685Y-100325766D01*
X132040385Y-100334476D01*
X132003878Y-100357054D01*
X131966561Y-100381604D01*
X131892721Y-100422211D01*
X131797598Y-100461541D01*
X131693622Y-100495078D01*
X131593221Y-100518309D01*
X131587408Y-100519306D01*
X131533551Y-100538608D01*
X131487478Y-100571165D01*
X131486374Y-100572320D01*
X131461779Y-100607673D01*
X131462307Y-100638971D01*
X131490257Y-100670276D01*
X131547928Y-100705650D01*
X131567559Y-100715755D01*
X131652835Y-100758611D01*
X131616270Y-100800422D01*
X131525269Y-100882824D01*
X131407538Y-100951845D01*
X131261849Y-101007942D01*
X131086977Y-101051567D01*
X130881693Y-101083175D01*
X130840896Y-101087678D01*
X130757819Y-101098007D01*
X130681930Y-101110418D01*
X130622755Y-101123187D01*
X130594100Y-101132387D01*
X130550173Y-101164923D01*
X130537862Y-101207708D01*
X130557122Y-101258961D01*
X130598330Y-101307897D01*
X130643527Y-101355820D01*
X130684849Y-101406709D01*
X130717307Y-101453453D01*
X130735910Y-101488943D01*
X130736843Y-101505233D01*
X130716833Y-101504718D01*
X130687167Y-101489987D01*
X130651900Y-101470873D01*
X130596750Y-101445221D01*
X130533499Y-101418503D01*
X130531953Y-101417884D01*
X130488722Y-101401032D01*
X130451966Y-101389023D01*
X130415019Y-101381232D01*
X130371213Y-101377036D01*
X130313881Y-101375814D01*
X130236355Y-101376940D01*
X130131968Y-101379794D01*
X130126148Y-101379964D01*
X129982680Y-101386160D01*
X129869895Y-101396052D01*
X129784719Y-101410639D01*
X129724075Y-101430917D01*
X129684888Y-101457882D01*
X129664083Y-101492532D01*
X129658533Y-101531521D01*
X129664886Y-101567870D01*
X129690019Y-101592017D01*
X129717800Y-101605324D01*
X129756039Y-101624781D01*
X129776160Y-101641805D01*
X129777066Y-101644735D01*
X129761455Y-101654589D01*
X129719766Y-101665506D01*
X129659714Y-101676340D01*
X129589017Y-101685942D01*
X129515391Y-101693164D01*
X129446551Y-101696859D01*
X129425008Y-101697106D01*
X129320134Y-101688017D01*
X129198937Y-101663240D01*
X129073343Y-101625766D01*
X128958883Y-101580245D01*
X128881535Y-101547429D01*
X128827597Y-101531850D01*
X128791650Y-101532976D01*
X128768275Y-101550272D01*
X128761662Y-101560786D01*
X128748691Y-101590429D01*
X128748580Y-101616119D01*
X128764652Y-101645536D01*
X128800231Y-101686360D01*
X128828800Y-101715929D01*
X128880175Y-101773364D01*
X128908404Y-101816330D01*
X128912315Y-101842490D01*
X128895847Y-101849766D01*
X128863708Y-101837660D01*
X128814283Y-101804321D01*
X128752337Y-101754224D01*
X128682635Y-101691840D01*
X128609941Y-101621643D01*
X128539022Y-101548103D01*
X128474641Y-101475695D01*
X128421564Y-101408890D01*
X128412113Y-101395724D01*
X128352639Y-101315498D01*
X128305004Y-101262247D01*
X128265801Y-101232704D01*
X128232495Y-101223609D01*
X128205598Y-101232334D01*
X128185961Y-101262246D01*
X128171736Y-101317739D01*
X128162298Y-101390517D01*
X128144728Y-101482075D01*
X128113611Y-101558893D01*
X128072498Y-101613404D01*
X128050066Y-101629526D01*
X128029364Y-101634813D01*
X128011339Y-101620966D01*
X127989576Y-101582239D01*
X127983847Y-101570229D01*
X127963145Y-101523620D01*
X127950315Y-101489787D01*
X127948266Y-101480866D01*
X127937539Y-101450256D01*
X127909454Y-101403495D01*
X127870157Y-101348813D01*
X127825795Y-101294443D01*
X127782514Y-101248616D01*
X127760409Y-101229259D01*
X127690072Y-101170427D01*
X127617110Y-101102904D01*
X127547812Y-101033182D01*
X127488464Y-100967754D01*
X127445355Y-100913111D01*
X127429691Y-100887794D01*
X127383961Y-100808830D01*
X127338124Y-100749156D01*
X127295450Y-100711380D01*
X127259209Y-100698108D01*
X127232672Y-100711948D01*
X127225707Y-100725131D01*
X127223721Y-100758488D01*
X127231057Y-100816250D01*
X127246260Y-100890718D01*
X127267874Y-100974190D01*
X127281188Y-101018671D01*
X127293930Y-101064170D01*
X127299370Y-101094007D01*
X127298658Y-101099552D01*
X127285069Y-101091554D01*
X127256501Y-101064555D01*
X127231671Y-101038136D01*
X127181236Y-100970648D01*
X127128495Y-100880420D01*
X127078513Y-100777768D01*
X127036355Y-100673008D01*
X127009157Y-100584931D01*
X126992150Y-100522156D01*
X126975665Y-100469316D01*
X126963536Y-100438447D01*
X126956555Y-100422086D01*
X126948747Y-100396167D01*
X126939374Y-100357051D01*
X126927696Y-100301100D01*
X126912973Y-100224674D01*
X126894467Y-100124135D01*
X126871436Y-99995843D01*
X126856605Y-99912317D01*
X126840512Y-99826293D01*
X126825008Y-99752070D01*
X126811571Y-99696135D01*
X126801678Y-99664976D01*
X126799433Y-99661227D01*
X126772610Y-99651650D01*
X126736767Y-99651342D01*
X126698354Y-99668176D01*
X126671044Y-99709891D01*
X126653968Y-99778935D01*
X126646258Y-99877754D01*
X126645688Y-99907779D01*
X126642996Y-99975272D01*
X126637064Y-100032395D01*
X126629086Y-100068284D01*
X126627680Y-100071366D01*
X126605817Y-100096244D01*
X126568525Y-100127025D01*
X126527669Y-100155082D01*
X126495112Y-100171789D01*
X126487425Y-100173366D01*
X126486929Y-100158965D01*
X126495554Y-100122126D01*
X126504365Y-100092933D01*
X126519379Y-100022876D01*
X126528825Y-99929808D01*
X126532695Y-99824125D01*
X126530980Y-99716224D01*
X126523672Y-99616500D01*
X126510762Y-99535351D01*
X126504828Y-99512966D01*
X126479273Y-99408941D01*
X126457378Y-99276505D01*
X126439901Y-99120986D01*
X126429624Y-98983799D01*
X126419738Y-98818699D01*
X126463993Y-98818699D01*
X126528660Y-98808510D01*
X126612661Y-98780352D01*
X126709235Y-98737839D01*
X126811619Y-98684588D01*
X126913050Y-98624213D01*
X127006765Y-98560329D01*
X127086001Y-98496550D01*
X127111340Y-98472664D01*
X127178347Y-98401116D01*
X127244967Y-98321778D01*
X127303761Y-98244097D01*
X127347289Y-98177522D01*
X127355533Y-98162533D01*
X127379588Y-98120446D01*
X127398659Y-98094531D01*
X127404516Y-98090566D01*
X127423301Y-98100658D01*
X127457277Y-98126152D01*
X127474772Y-98140678D01*
X127512393Y-98170913D01*
X127539395Y-98189139D01*
X127545348Y-98191478D01*
X127565440Y-98200649D01*
X127602274Y-98223000D01*
X127620982Y-98235385D01*
X127734601Y-98301436D01*
X127872987Y-98364140D01*
X128027039Y-98420248D01*
X128187659Y-98466512D01*
X128345744Y-98499684D01*
X128373838Y-98504105D01*
X128587961Y-98520563D01*
X128806501Y-98508655D01*
X129023059Y-98469851D01*
X129231236Y-98405625D01*
X129424633Y-98317449D01*
X129565400Y-98229948D01*
X129645819Y-98167085D01*
X129728493Y-98092755D01*
X129808178Y-98012692D01*
X129879629Y-97932633D01*
X129937604Y-97858309D01*
X129976858Y-97795457D01*
X129988880Y-97766850D01*
X130007754Y-97724212D01*
X130023475Y-97701012D01*
X130043774Y-97664517D01*
X130066528Y-97602483D01*
X130089701Y-97522938D01*
X130111255Y-97433910D01*
X130129154Y-97343427D01*
X130141361Y-97259517D01*
X130144626Y-97223543D01*
X130144885Y-97066083D01*
X130127164Y-96901674D01*
X130093502Y-96748001D01*
X130087349Y-96727433D01*
X130054489Y-96639283D01*
X130007879Y-96536566D01*
X129953911Y-96431941D01*
X129898975Y-96338069D01*
X129866223Y-96289427D01*
X129772466Y-96174986D01*
X129660116Y-96060941D01*
X129538204Y-95955280D01*
X129415763Y-95865993D01*
X129330163Y-95815180D01*
X129272000Y-95784123D01*
X129224622Y-95757857D01*
X129196893Y-95741317D01*
X129194696Y-95739771D01*
X129166664Y-95725519D01*
X129114342Y-95704522D01*
X129045914Y-95679640D01*
X128969565Y-95653737D01*
X128893480Y-95629674D01*
X128825845Y-95610314D01*
X128820333Y-95608869D01*
X128760701Y-95597102D01*
X128679176Y-95585976D01*
X128587722Y-95576942D01*
X128519766Y-95572411D01*
X128425959Y-95566109D01*
X128360861Y-95558291D01*
X128351506Y-95555831D01*
X128351506Y-95790971D01*
X128479496Y-95793113D01*
X128604711Y-95803004D01*
X128715317Y-95820320D01*
X128748203Y-95828027D01*
X128834958Y-95852695D01*
X128919878Y-95880324D01*
X128995110Y-95908034D01*
X129052806Y-95932943D01*
X129084133Y-95951312D01*
X129116390Y-95970162D01*
X129132934Y-95973899D01*
X129163200Y-95983366D01*
X129210954Y-96008194D01*
X129266894Y-96043028D01*
X129321719Y-96082512D01*
X129322167Y-96082862D01*
X129363833Y-96115592D01*
X129414471Y-96155479D01*
X129431140Y-96168633D01*
X129571785Y-96298550D01*
X129691588Y-96447729D01*
X129787922Y-96611060D01*
X129858156Y-96783436D01*
X129899662Y-96959747D01*
X129910416Y-97099966D01*
X129907956Y-97187646D01*
X129901147Y-97280217D01*
X129891365Y-97359844D01*
X129889489Y-97370900D01*
X129847766Y-97518782D01*
X129777693Y-97667513D01*
X129683840Y-97809984D01*
X129570777Y-97939089D01*
X129464525Y-98031837D01*
X129351874Y-98103467D01*
X129212098Y-98168939D01*
X129051765Y-98225535D01*
X128900267Y-98265525D01*
X128808983Y-98279538D01*
X128697930Y-98286635D01*
X128577159Y-98287118D01*
X128456725Y-98281286D01*
X128346681Y-98269440D01*
X128257080Y-98251880D01*
X128236133Y-98245689D01*
X128174860Y-98227136D01*
X128122410Y-98214017D01*
X128091734Y-98209318D01*
X128051497Y-98199582D01*
X128020369Y-98183161D01*
X127980205Y-98160686D01*
X127927310Y-98137652D01*
X127914765Y-98133029D01*
X127808564Y-98083573D01*
X127695179Y-98010050D01*
X127580245Y-97918103D01*
X127469398Y-97813377D01*
X127368274Y-97701516D01*
X127282509Y-97588166D01*
X127217738Y-97478969D01*
X127186458Y-97403599D01*
X127165421Y-97345302D01*
X127138723Y-97280142D01*
X127130112Y-97260833D01*
X127111134Y-97197211D01*
X127099125Y-97110218D01*
X127093801Y-97008134D01*
X127094876Y-96899244D01*
X127102066Y-96791828D01*
X127115087Y-96694169D01*
X127133652Y-96614549D01*
X127153989Y-96566566D01*
X127173979Y-96528895D01*
X127179762Y-96515766D01*
X127228723Y-96409102D01*
X127286408Y-96316369D01*
X127360807Y-96225838D01*
X127417079Y-96167412D01*
X127478937Y-96108539D01*
X127539113Y-96055860D01*
X127589805Y-96015963D01*
X127617744Y-95997954D01*
X127673758Y-95968724D01*
X127728036Y-95939945D01*
X127734064Y-95936706D01*
X127796369Y-95909093D01*
X127884100Y-95878474D01*
X127989264Y-95847353D01*
X128103871Y-95818234D01*
X128134533Y-95811232D01*
X128232574Y-95796903D01*
X128351506Y-95790971D01*
X128351506Y-95555831D01*
X128326483Y-95549248D01*
X128321400Y-95543748D01*
X128324085Y-95519493D01*
X128330741Y-95470614D01*
X128340144Y-95405953D01*
X128344489Y-95377057D01*
X128358480Y-95174028D01*
X128339996Y-94970310D01*
X128289778Y-94771807D01*
X128257539Y-94686966D01*
X128190363Y-94544084D01*
X128120593Y-94426477D01*
X128080058Y-94371876D01*
X128017116Y-94295163D01*
X128111374Y-94182031D01*
X128153965Y-94133785D01*
X128215263Y-94068199D01*
X128289458Y-93991298D01*
X128370741Y-93909107D01*
X128450754Y-93830129D01*
X128534760Y-93747831D01*
X128597441Y-93684842D01*
X128642066Y-93637189D01*
X128671904Y-93600899D01*
X128690223Y-93571999D01*
X128700294Y-93546515D01*
X128705357Y-93520683D01*
X128716164Y-93466759D01*
X128728960Y-93443970D01*
X128742143Y-93453194D01*
X128753871Y-93493990D01*
X128756882Y-93557755D01*
X128748144Y-93643302D01*
X128728980Y-93741175D01*
X128708695Y-93816541D01*
X128695764Y-93881375D01*
X128704569Y-93921743D01*
X128735939Y-93939823D01*
X128756301Y-93941292D01*
X128794425Y-93931431D01*
X128836426Y-93899644D01*
X128871133Y-93862647D01*
X129076703Y-93650614D01*
X129309090Y-93456399D01*
X129564852Y-93282608D01*
X129827866Y-93138049D01*
X129890400Y-93109172D01*
X129957004Y-93081391D01*
X130019959Y-93057547D01*
X130071546Y-93040479D01*
X130104046Y-93033028D01*
X130104046Y-92793440D01*
X130103754Y-92793501D01*
X130009923Y-92824523D01*
X129899203Y-92869201D01*
X129777288Y-92925045D01*
X129649873Y-92989567D01*
X129522652Y-93060278D01*
X129499736Y-93073754D01*
X129435982Y-93110900D01*
X129383016Y-93140474D01*
X129347557Y-93158800D01*
X129336709Y-93162966D01*
X129316562Y-93174458D01*
X129302933Y-93188366D01*
X129273863Y-93209896D01*
X129258075Y-93213766D01*
X129234906Y-93223995D01*
X129193599Y-93251282D01*
X129141629Y-93290527D01*
X129120650Y-93307507D01*
X129007004Y-93401247D01*
X128991633Y-93354073D01*
X128954360Y-93274906D01*
X128900618Y-93205762D01*
X128837124Y-93152447D01*
X128770596Y-93120768D01*
X128715452Y-93115331D01*
X128690683Y-93123690D01*
X128665247Y-93145458D01*
X128636249Y-93184753D01*
X128600797Y-93245696D01*
X128555996Y-93332406D01*
X128539263Y-93366166D01*
X128504647Y-93428789D01*
X128460493Y-93493253D01*
X128402879Y-93564342D01*
X128327880Y-93646837D01*
X128231576Y-93745520D01*
X128212314Y-93764736D01*
X128141506Y-93836186D01*
X128071122Y-93909004D01*
X128008803Y-93975173D01*
X127962194Y-94026677D01*
X127958067Y-94031436D01*
X127915846Y-94077970D01*
X127880679Y-94112251D01*
X127859258Y-94127837D01*
X127857557Y-94128166D01*
X127836415Y-94117961D01*
X127798722Y-94091425D01*
X127760051Y-94060433D01*
X127713863Y-94024609D01*
X127675126Y-94000058D01*
X127655412Y-93992699D01*
X127624951Y-93983089D01*
X127590716Y-93962295D01*
X127548434Y-93938761D01*
X127482046Y-93911166D01*
X127400565Y-93882529D01*
X127313003Y-93855866D01*
X127228373Y-93834195D01*
X127177353Y-93823894D01*
X127069408Y-93813361D01*
X126942343Y-93813778D01*
X126926010Y-93815092D01*
X126926010Y-94028629D01*
X127024183Y-94030683D01*
X127118259Y-94035589D01*
X127188877Y-94042525D01*
X127246444Y-94053388D01*
X127301369Y-94070069D01*
X127355600Y-94090993D01*
X127524971Y-94168597D01*
X127666753Y-94253192D01*
X127787137Y-94349330D01*
X127892312Y-94461564D01*
X127935670Y-94517633D01*
X128027741Y-94670647D01*
X128095202Y-94841432D01*
X128136447Y-95022906D01*
X128149869Y-95207984D01*
X128133862Y-95389585D01*
X128133643Y-95390823D01*
X128116128Y-95480877D01*
X128099805Y-95542085D01*
X128082551Y-95579306D01*
X128062243Y-95597397D01*
X128041613Y-95601366D01*
X128004480Y-95607125D01*
X127944937Y-95622439D01*
X127872053Y-95644362D01*
X127794895Y-95669950D01*
X127722528Y-95696257D01*
X127664020Y-95720337D01*
X127641390Y-95731372D01*
X127585854Y-95763970D01*
X127531635Y-95799677D01*
X127530715Y-95800333D01*
X127493376Y-95824876D01*
X127467863Y-95837831D01*
X127464796Y-95838433D01*
X127443699Y-95849224D01*
X127404455Y-95878072D01*
X127353453Y-95919687D01*
X127297081Y-95968783D01*
X127241729Y-96020069D01*
X127221413Y-96039905D01*
X127154929Y-96112035D01*
X127093302Y-96189727D01*
X127043714Y-96263307D01*
X127015812Y-96316799D01*
X126995182Y-96354319D01*
X126974098Y-96360013D01*
X126949200Y-96337966D01*
X126924183Y-96316648D01*
X126912130Y-96312566D01*
X126889326Y-96303239D01*
X126852649Y-96280083D01*
X126842236Y-96272568D01*
X126782908Y-96238089D01*
X126699055Y-96202037D01*
X126599712Y-96167415D01*
X126493911Y-96137227D01*
X126390683Y-96114478D01*
X126344591Y-96107068D01*
X126268362Y-96095200D01*
X126216320Y-96082440D01*
X126178878Y-96065402D01*
X126166113Y-96055681D01*
X126166113Y-96300135D01*
X126358668Y-96321664D01*
X126552580Y-96375036D01*
X126745737Y-96460279D01*
X126839133Y-96513484D01*
X126876325Y-96545168D01*
X126885670Y-96581112D01*
X126885298Y-96585233D01*
X126877803Y-96670160D01*
X126872498Y-96769372D01*
X126869450Y-96874719D01*
X126868727Y-96978052D01*
X126870393Y-97071220D01*
X126874517Y-97146075D01*
X126880355Y-97190915D01*
X126909869Y-97309247D01*
X126946403Y-97424523D01*
X126986099Y-97525461D01*
X127014270Y-97582566D01*
X127042857Y-97633986D01*
X127067046Y-97678064D01*
X127075023Y-97692871D01*
X127106784Y-97745478D01*
X127147742Y-97804289D01*
X127187851Y-97855332D01*
X127206207Y-97875326D01*
X127227731Y-97902504D01*
X127234182Y-97932331D01*
X127224261Y-97971556D01*
X127196669Y-98026926D01*
X127167438Y-98076769D01*
X127052225Y-98236295D01*
X126915089Y-98372376D01*
X126759498Y-98483158D01*
X126588915Y-98566789D01*
X126406807Y-98621414D01*
X126216639Y-98645183D01*
X126106136Y-98644223D01*
X125987372Y-98634513D01*
X125889201Y-98618383D01*
X125798480Y-98592363D01*
X125702065Y-98552984D01*
X125630032Y-98518538D01*
X125462070Y-98416972D01*
X125314717Y-98290468D01*
X125190895Y-98142349D01*
X125093527Y-97975937D01*
X125042753Y-97850582D01*
X125023245Y-97789387D01*
X125009867Y-97736227D01*
X125001446Y-97681951D01*
X124996811Y-97617406D01*
X124994792Y-97533441D01*
X124994358Y-97472500D01*
X124994335Y-97376954D01*
X124996024Y-97306416D01*
X125000711Y-97252032D01*
X125009686Y-97204944D01*
X125024236Y-97156298D01*
X125045650Y-97097237D01*
X125051007Y-97083033D01*
X125081609Y-97007487D01*
X125114074Y-96936064D01*
X125143017Y-96880329D01*
X125152607Y-96864712D01*
X125183161Y-96818271D01*
X125207856Y-96779617D01*
X125213889Y-96769763D01*
X125260885Y-96706780D01*
X125330409Y-96634588D01*
X125415328Y-96560322D01*
X125451682Y-96531880D01*
X125617699Y-96426320D01*
X125793517Y-96352491D01*
X125977025Y-96310420D01*
X126166113Y-96300135D01*
X126166113Y-96055681D01*
X126146448Y-96040704D01*
X126140083Y-96034885D01*
X126097645Y-95988638D01*
X126045883Y-95922533D01*
X125991710Y-95846432D01*
X125942042Y-95770196D01*
X125903796Y-95703686D01*
X125894376Y-95684506D01*
X125851437Y-95564873D01*
X125821639Y-95426810D01*
X125805234Y-95278826D01*
X125802475Y-95129430D01*
X125813612Y-94987134D01*
X125838898Y-94860446D01*
X125867614Y-94780100D01*
X125971490Y-94585900D01*
X126093099Y-94420546D01*
X126232460Y-94284017D01*
X126389588Y-94176296D01*
X126449543Y-94145031D01*
X126572823Y-94090993D01*
X126685507Y-94055136D01*
X126799326Y-94035126D01*
X126926010Y-94028629D01*
X126926010Y-93815092D01*
X126808866Y-93824517D01*
X126681684Y-93844951D01*
X126661333Y-93849405D01*
X126583998Y-93870398D01*
X126498914Y-93898749D01*
X126415097Y-93930887D01*
X126341565Y-93963242D01*
X126287333Y-93992244D01*
X126270533Y-94004152D01*
X126242584Y-94022627D01*
X126230220Y-94026566D01*
X126205839Y-94038426D01*
X126164175Y-94070605D01*
X126110321Y-94117998D01*
X126049369Y-94175504D01*
X125986412Y-94238019D01*
X125926545Y-94300441D01*
X125874860Y-94357666D01*
X125836449Y-94404592D01*
X125816407Y-94436115D01*
X125814666Y-94442926D01*
X125805374Y-94463204D01*
X125782346Y-94498082D01*
X125775379Y-94507568D01*
X125751588Y-94548501D01*
X125722566Y-94611804D01*
X125691526Y-94688672D01*
X125661682Y-94770298D01*
X125636250Y-94847877D01*
X125618442Y-94912603D01*
X125611474Y-94955668D01*
X125611466Y-94956642D01*
X125605631Y-95007599D01*
X125593009Y-95056592D01*
X125584415Y-95107653D01*
X125583154Y-95183143D01*
X125588317Y-95274644D01*
X125598993Y-95373736D01*
X125614273Y-95472002D01*
X125633249Y-95561023D01*
X125655009Y-95632379D01*
X125655298Y-95633132D01*
X125711341Y-95768644D01*
X125766804Y-95880526D01*
X125826683Y-95978550D01*
X125846410Y-96006933D01*
X125912102Y-96098909D01*
X125748482Y-96151998D01*
X125543127Y-96235050D01*
X125359603Y-96343915D01*
X125197781Y-96478714D01*
X125057532Y-96639571D01*
X124938728Y-96826608D01*
X124857725Y-96998366D01*
X124818922Y-97119874D01*
X124792097Y-97260048D01*
X124777751Y-97409109D01*
X124776385Y-97557276D01*
X124788499Y-97694770D01*
G36*
X128234568Y-100871998D02*
G01*
X128274471Y-100936876D01*
X128342090Y-100998192D01*
X128480546Y-101094326D01*
X128603991Y-101162667D01*
X128715032Y-101204341D01*
X128816282Y-101220477D01*
X128855537Y-101219975D01*
X128922075Y-101207529D01*
X128958175Y-101182993D01*
X128963610Y-101149582D01*
X128938151Y-101110514D01*
X128881571Y-101069007D01*
X128866816Y-101060862D01*
X128809492Y-101028192D01*
X128754093Y-100993054D01*
X128743244Y-100985533D01*
X128688767Y-100946743D01*
X128737617Y-100911445D01*
X128839391Y-100828101D01*
X128936485Y-100726956D01*
X129017589Y-100625834D01*
X129060018Y-100568321D01*
X129093502Y-100520839D01*
X129113556Y-100489867D01*
X129117275Y-100481901D01*
X129132877Y-100450468D01*
X129171308Y-100412341D01*
X129223924Y-100373331D01*
X129282079Y-100339248D01*
X129337129Y-100315899D01*
X129374817Y-100308833D01*
X129407553Y-100298353D01*
X129413846Y-100293484D01*
X129438667Y-100281035D01*
X129491295Y-100262194D01*
X129566583Y-100238380D01*
X129659386Y-100211013D01*
X129764557Y-100181513D01*
X129876949Y-100151299D01*
X129991416Y-100121790D01*
X130102812Y-100094406D01*
X130205991Y-100070567D01*
X130276600Y-100055519D01*
X130335270Y-100042354D01*
X130382744Y-100029450D01*
X130404155Y-100021624D01*
X130438187Y-100009133D01*
X130485533Y-99996860D01*
X130488822Y-99996167D01*
X130558923Y-99980028D01*
X130640165Y-99958908D01*
X130722132Y-99935775D01*
X130794409Y-99913596D01*
X130846578Y-99895336D01*
X130854892Y-99891892D01*
X130901300Y-99875616D01*
X130939567Y-99868574D01*
X130940405Y-99868566D01*
X130975839Y-99861304D01*
X130988646Y-99853678D01*
X131014103Y-99839566D01*
X131057812Y-99822664D01*
X131072466Y-99817925D01*
X131150961Y-99788648D01*
X131248736Y-99744511D01*
X131357302Y-99690041D01*
X131468170Y-99629764D01*
X131572849Y-99568206D01*
X131662852Y-99509893D01*
X131698999Y-99483893D01*
X131888569Y-99326923D01*
X132052369Y-99159630D01*
X132193714Y-98977348D01*
X132315917Y-98775416D01*
X132422291Y-98549170D01*
X132490461Y-98369966D01*
X132545001Y-98194241D01*
X132587838Y-98015524D01*
X132617933Y-97840787D01*
X132634249Y-97677000D01*
X132635747Y-97531131D01*
X132627973Y-97447100D01*
X132622534Y-97409673D01*
X132614052Y-97350924D01*
X132604289Y-97283051D01*
X132603531Y-97277766D01*
X132583568Y-97170142D01*
X132554268Y-97051805D01*
X132519350Y-96935820D01*
X132482536Y-96835249D01*
X132468117Y-96802274D01*
X132392716Y-96645732D01*
X132324818Y-96515136D01*
X132291809Y-96456499D01*
X132255629Y-96398528D01*
X132203049Y-96319659D01*
X132138334Y-96225827D01*
X132065746Y-96122967D01*
X131989548Y-96017015D01*
X131914004Y-95913905D01*
X131843378Y-95819573D01*
X131781932Y-95739953D01*
X131739168Y-95687161D01*
X131706791Y-95647162D01*
X131664686Y-95593026D01*
X131617242Y-95530661D01*
X131568847Y-95465977D01*
X131523888Y-95404882D01*
X131486755Y-95353286D01*
X131461835Y-95317097D01*
X131453466Y-95302444D01*
X131444228Y-95282890D01*
X131421329Y-95248414D01*
X131414361Y-95238898D01*
X131386041Y-95196101D01*
X131351034Y-95136553D01*
X131320614Y-95080182D01*
X131265973Y-94973864D01*
X131311477Y-94851582D01*
X131336345Y-94776283D01*
X131357194Y-94698084D01*
X131369146Y-94636166D01*
X131372044Y-94520641D01*
X131355084Y-94394716D01*
X131321082Y-94273146D01*
X131283899Y-94189662D01*
X131229997Y-94091446D01*
X131321453Y-94102872D01*
X131378942Y-94107689D01*
X131413436Y-94103141D01*
X131434856Y-94087834D01*
X131435740Y-94086789D01*
X131448080Y-94049127D01*
X131429867Y-94006268D01*
X131383547Y-93960625D01*
X131311568Y-93914608D01*
X131216399Y-93870638D01*
X131148033Y-93852504D01*
X131061642Y-93842353D01*
X130968413Y-93840180D01*
X130879531Y-93845981D01*
X130806183Y-93859752D01*
X130776329Y-93870813D01*
X130720805Y-93910885D01*
X130688185Y-93961707D01*
X130682581Y-94015435D01*
X130689259Y-94036952D01*
X130703193Y-94059005D01*
X130724746Y-94071524D01*
X130760611Y-94075390D01*
X130817478Y-94071483D01*
X130886199Y-94062861D01*
X130938026Y-94057563D01*
X130968631Y-94061948D01*
X130990044Y-94079273D01*
X131001186Y-94093978D01*
X131046696Y-94169779D01*
X131088568Y-94259885D01*
X131119850Y-94348315D01*
X131129917Y-94389876D01*
X131136088Y-94455916D01*
X131134593Y-94534692D01*
X131126566Y-94613890D01*
X131113138Y-94681193D01*
X131099823Y-94717176D01*
X131084371Y-94760950D01*
X131080933Y-94787408D01*
X131072031Y-94828978D01*
X131047689Y-94891415D01*
X131011452Y-94967544D01*
X130966863Y-95050186D01*
X130917467Y-95132164D01*
X130890603Y-95172811D01*
X130853390Y-95231388D01*
X130826201Y-95282481D01*
X130813278Y-95317763D01*
X130812974Y-95325211D01*
X130831660Y-95354846D01*
X130868555Y-95360124D01*
X130918939Y-95341609D01*
X130970390Y-95306329D01*
X131012085Y-95273299D01*
X131042507Y-95251301D01*
X131052804Y-95245766D01*
X131063997Y-95260305D01*
X131071963Y-95294400D01*
X131074901Y-95333774D01*
X131071014Y-95364146D01*
X131068357Y-95369226D01*
X131055018Y-95394892D01*
X131035179Y-95442252D01*
X131013750Y-95499373D01*
X130985097Y-95565248D01*
X130943337Y-95643692D01*
X130896171Y-95720554D01*
X130882220Y-95741044D01*
X130832033Y-95817638D01*
X130805279Y-95871728D01*
X130801765Y-95905076D01*
X130821301Y-95919444D01*
X130863100Y-95916713D01*
X130909438Y-95897840D01*
X130957831Y-95864383D01*
X130967455Y-95855576D01*
X131000351Y-95826059D01*
X131022056Y-95811494D01*
X131025644Y-95811366D01*
X131023440Y-95829853D01*
X131008756Y-95866909D01*
X130986750Y-95912191D01*
X130962579Y-95955356D01*
X130941402Y-95986062D01*
X130935540Y-95992044D01*
X130915062Y-96016473D01*
X130911599Y-96027283D01*
X130901130Y-96046327D01*
X130873212Y-96084183D01*
X130833079Y-96134516D01*
X130785966Y-96190989D01*
X130737105Y-96247268D01*
X130691732Y-96297015D01*
X130671351Y-96318102D01*
X130638085Y-96354261D01*
X130626001Y-96381542D01*
X130631445Y-96414087D01*
X130640247Y-96438464D01*
X130662129Y-96471367D01*
X130700653Y-96481771D01*
X130707980Y-96481900D01*
X130759199Y-96481900D01*
X130759199Y-96596875D01*
X130748923Y-96727245D01*
X130720255Y-96855333D01*
X130676437Y-96967257D01*
X130669765Y-96979954D01*
X130638137Y-97033665D01*
X130592218Y-97106230D01*
X130537707Y-97189167D01*
X130480303Y-97273995D01*
X130425705Y-97352230D01*
X130379614Y-97415390D01*
X130361567Y-97438633D01*
X130307412Y-97526726D01*
X130263973Y-97639316D01*
X130233573Y-97768087D01*
X130218537Y-97904728D01*
X130217333Y-97954700D01*
X130214230Y-98050177D01*
X130205668Y-98153176D01*
X130192769Y-98257073D01*
X130176654Y-98355240D01*
X130158447Y-98441052D01*
X130139267Y-98507883D01*
X130120237Y-98549108D01*
X130115793Y-98554479D01*
X130101333Y-98584695D01*
X130098800Y-98604552D01*
X130090765Y-98640517D01*
X130069351Y-98696627D01*
X130038593Y-98763982D01*
X130002526Y-98833681D01*
X129969106Y-98890666D01*
X129937352Y-98933346D01*
X129912054Y-98953284D01*
X129897505Y-98947868D01*
X129895600Y-98935436D01*
X129884023Y-98905283D01*
X129855300Y-98865277D01*
X129818443Y-98825302D01*
X129782464Y-98795241D01*
X129758291Y-98784833D01*
X129736877Y-98790249D01*
X129720123Y-98808831D01*
X129707425Y-98844078D01*
X129698181Y-98899489D01*
X129691787Y-98978562D01*
X129687639Y-99084799D01*
X129685307Y-99208166D01*
X129683116Y-99331304D01*
X129679865Y-99426513D01*
X129675051Y-99499725D01*
X129668167Y-99556873D01*
X129658709Y-99603889D01*
X129648620Y-99639230D01*
X129630955Y-99692265D01*
X129620147Y-99716310D01*
X129613398Y-99714837D01*
X129607913Y-99691317D01*
X129607691Y-99690030D01*
X129593911Y-99651980D01*
X129563266Y-99636255D01*
X129551595Y-99634509D01*
X129515428Y-99634372D01*
X129487279Y-99646994D01*
X129462690Y-99677571D01*
X129437205Y-99731297D01*
X129412294Y-99796873D01*
X129378668Y-99885163D01*
X129348975Y-99950189D01*
X129318155Y-100001339D01*
X129281146Y-100048001D01*
X129270555Y-100059823D01*
X129227413Y-100107146D01*
X129208735Y-100051356D01*
X129186327Y-100008716D01*
X129152087Y-99991231D01*
X129145733Y-99990289D01*
X129087520Y-99995187D01*
X129044909Y-100027718D01*
X129016738Y-100082948D01*
X128947006Y-100259043D01*
X128870775Y-100415746D01*
X128790308Y-100549190D01*
X128707865Y-100655510D01*
X128647729Y-100713779D01*
X128584223Y-100759391D01*
X128534150Y-100777782D01*
X128492372Y-100770054D01*
X128468029Y-100752298D01*
X128419542Y-100717887D01*
X128362058Y-100691693D01*
X128312612Y-100681366D01*
X128289914Y-100694634D01*
X128261567Y-100727686D01*
X128253574Y-100739812D01*
X128227732Y-100806689D01*
X128234568Y-100871998D01*
G37*
X128234568Y-100871998D02*
X128274471Y-100936876D01*
X128342090Y-100998192D01*
X128480546Y-101094326D01*
X128603991Y-101162667D01*
X128715032Y-101204341D01*
X128816282Y-101220477D01*
X128855537Y-101219975D01*
X128922075Y-101207529D01*
X128958175Y-101182993D01*
X128963610Y-101149582D01*
X128938151Y-101110514D01*
X128881571Y-101069007D01*
X128866816Y-101060862D01*
X128809492Y-101028192D01*
X128754093Y-100993054D01*
X128743244Y-100985533D01*
X128688767Y-100946743D01*
X128737617Y-100911445D01*
X128839391Y-100828101D01*
X128936485Y-100726956D01*
X129017589Y-100625834D01*
X129060018Y-100568321D01*
X129093502Y-100520839D01*
X129113556Y-100489867D01*
X129117275Y-100481901D01*
X129132877Y-100450468D01*
X129171308Y-100412341D01*
X129223924Y-100373331D01*
X129282079Y-100339248D01*
X129337129Y-100315899D01*
X129374817Y-100308833D01*
X129407553Y-100298353D01*
X129413846Y-100293484D01*
X129438667Y-100281035D01*
X129491295Y-100262194D01*
X129566583Y-100238380D01*
X129659386Y-100211013D01*
X129764557Y-100181513D01*
X129876949Y-100151299D01*
X129991416Y-100121790D01*
X130102812Y-100094406D01*
X130205991Y-100070567D01*
X130276600Y-100055519D01*
X130335270Y-100042354D01*
X130382744Y-100029450D01*
X130404155Y-100021624D01*
X130438187Y-100009133D01*
X130485533Y-99996860D01*
X130488822Y-99996167D01*
X130558923Y-99980028D01*
X130640165Y-99958908D01*
X130722132Y-99935775D01*
X130794409Y-99913596D01*
X130846578Y-99895336D01*
X130854892Y-99891892D01*
X130901300Y-99875616D01*
X130939567Y-99868574D01*
X130940405Y-99868566D01*
X130975839Y-99861304D01*
X130988646Y-99853678D01*
X131014103Y-99839566D01*
X131057812Y-99822664D01*
X131072466Y-99817925D01*
X131150961Y-99788648D01*
X131248736Y-99744511D01*
X131357302Y-99690041D01*
X131468170Y-99629764D01*
X131572849Y-99568206D01*
X131662852Y-99509893D01*
X131698999Y-99483893D01*
X131888569Y-99326923D01*
X132052369Y-99159630D01*
X132193714Y-98977348D01*
X132315917Y-98775416D01*
X132422291Y-98549170D01*
X132490461Y-98369966D01*
X132545001Y-98194241D01*
X132587838Y-98015524D01*
X132617933Y-97840787D01*
X132634249Y-97677000D01*
X132635747Y-97531131D01*
X132627973Y-97447100D01*
X132622534Y-97409673D01*
X132614052Y-97350924D01*
X132604289Y-97283051D01*
X132603531Y-97277766D01*
X132583568Y-97170142D01*
X132554268Y-97051805D01*
X132519350Y-96935820D01*
X132482536Y-96835249D01*
X132468117Y-96802274D01*
X132392716Y-96645732D01*
X132324818Y-96515136D01*
X132291809Y-96456499D01*
X132255629Y-96398528D01*
X132203049Y-96319659D01*
X132138334Y-96225827D01*
X132065746Y-96122967D01*
X131989548Y-96017015D01*
X131914004Y-95913905D01*
X131843378Y-95819573D01*
X131781932Y-95739953D01*
X131739168Y-95687161D01*
X131706791Y-95647162D01*
X131664686Y-95593026D01*
X131617242Y-95530661D01*
X131568847Y-95465977D01*
X131523888Y-95404882D01*
X131486755Y-95353286D01*
X131461835Y-95317097D01*
X131453466Y-95302444D01*
X131444228Y-95282890D01*
X131421329Y-95248414D01*
X131414361Y-95238898D01*
X131386041Y-95196101D01*
X131351034Y-95136553D01*
X131320614Y-95080182D01*
X131265973Y-94973864D01*
X131311477Y-94851582D01*
X131336345Y-94776283D01*
X131357194Y-94698084D01*
X131369146Y-94636166D01*
X131372044Y-94520641D01*
X131355084Y-94394716D01*
X131321082Y-94273146D01*
X131283899Y-94189662D01*
X131229997Y-94091446D01*
X131321453Y-94102872D01*
X131378942Y-94107689D01*
X131413436Y-94103141D01*
X131434856Y-94087834D01*
X131435740Y-94086789D01*
X131448080Y-94049127D01*
X131429867Y-94006268D01*
X131383547Y-93960625D01*
X131311568Y-93914608D01*
X131216399Y-93870638D01*
X131148033Y-93852504D01*
X131061642Y-93842353D01*
X130968413Y-93840180D01*
X130879531Y-93845981D01*
X130806183Y-93859752D01*
X130776329Y-93870813D01*
X130720805Y-93910885D01*
X130688185Y-93961707D01*
X130682581Y-94015435D01*
X130689259Y-94036952D01*
X130703193Y-94059005D01*
X130724746Y-94071524D01*
X130760611Y-94075390D01*
X130817478Y-94071483D01*
X130886199Y-94062861D01*
X130938026Y-94057563D01*
X130968631Y-94061948D01*
X130990044Y-94079273D01*
X131001186Y-94093978D01*
X131046696Y-94169779D01*
X131088568Y-94259885D01*
X131119850Y-94348315D01*
X131129917Y-94389876D01*
X131136088Y-94455916D01*
X131134593Y-94534692D01*
X131126566Y-94613890D01*
X131113138Y-94681193D01*
X131099823Y-94717176D01*
X131084371Y-94760950D01*
X131080933Y-94787408D01*
X131072031Y-94828978D01*
X131047689Y-94891415D01*
X131011452Y-94967544D01*
X130966863Y-95050186D01*
X130917467Y-95132164D01*
X130890603Y-95172811D01*
X130853390Y-95231388D01*
X130826201Y-95282481D01*
X130813278Y-95317763D01*
X130812974Y-95325211D01*
X130831660Y-95354846D01*
X130868555Y-95360124D01*
X130918939Y-95341609D01*
X130970390Y-95306329D01*
X131012085Y-95273299D01*
X131042507Y-95251301D01*
X131052804Y-95245766D01*
X131063997Y-95260305D01*
X131071963Y-95294400D01*
X131074901Y-95333774D01*
X131071014Y-95364146D01*
X131068357Y-95369226D01*
X131055018Y-95394892D01*
X131035179Y-95442252D01*
X131013750Y-95499373D01*
X130985097Y-95565248D01*
X130943337Y-95643692D01*
X130896171Y-95720554D01*
X130882220Y-95741044D01*
X130832033Y-95817638D01*
X130805279Y-95871728D01*
X130801765Y-95905076D01*
X130821301Y-95919444D01*
X130863100Y-95916713D01*
X130909438Y-95897840D01*
X130957831Y-95864383D01*
X130967455Y-95855576D01*
X131000351Y-95826059D01*
X131022056Y-95811494D01*
X131025644Y-95811366D01*
X131023440Y-95829853D01*
X131008756Y-95866909D01*
X130986750Y-95912191D01*
X130962579Y-95955356D01*
X130941402Y-95986062D01*
X130935540Y-95992044D01*
X130915062Y-96016473D01*
X130911599Y-96027283D01*
X130901130Y-96046327D01*
X130873212Y-96084183D01*
X130833079Y-96134516D01*
X130785966Y-96190989D01*
X130737105Y-96247268D01*
X130691732Y-96297015D01*
X130671351Y-96318102D01*
X130638085Y-96354261D01*
X130626001Y-96381542D01*
X130631445Y-96414087D01*
X130640247Y-96438464D01*
X130662129Y-96471367D01*
X130700653Y-96481771D01*
X130707980Y-96481900D01*
X130759199Y-96481900D01*
X130759199Y-96596875D01*
X130748923Y-96727245D01*
X130720255Y-96855333D01*
X130676437Y-96967257D01*
X130669765Y-96979954D01*
X130638137Y-97033665D01*
X130592218Y-97106230D01*
X130537707Y-97189167D01*
X130480303Y-97273995D01*
X130425705Y-97352230D01*
X130379614Y-97415390D01*
X130361567Y-97438633D01*
X130307412Y-97526726D01*
X130263973Y-97639316D01*
X130233573Y-97768087D01*
X130218537Y-97904728D01*
X130217333Y-97954700D01*
X130214230Y-98050177D01*
X130205668Y-98153176D01*
X130192769Y-98257073D01*
X130176654Y-98355240D01*
X130158447Y-98441052D01*
X130139267Y-98507883D01*
X130120237Y-98549108D01*
X130115793Y-98554479D01*
X130101333Y-98584695D01*
X130098800Y-98604552D01*
X130090765Y-98640517D01*
X130069351Y-98696627D01*
X130038593Y-98763982D01*
X130002526Y-98833681D01*
X129969106Y-98890666D01*
X129937352Y-98933346D01*
X129912054Y-98953284D01*
X129897505Y-98947868D01*
X129895600Y-98935436D01*
X129884023Y-98905283D01*
X129855300Y-98865277D01*
X129818443Y-98825302D01*
X129782464Y-98795241D01*
X129758291Y-98784833D01*
X129736877Y-98790249D01*
X129720123Y-98808831D01*
X129707425Y-98844078D01*
X129698181Y-98899489D01*
X129691787Y-98978562D01*
X129687639Y-99084799D01*
X129685307Y-99208166D01*
X129683116Y-99331304D01*
X129679865Y-99426513D01*
X129675051Y-99499725D01*
X129668167Y-99556873D01*
X129658709Y-99603889D01*
X129648620Y-99639230D01*
X129630955Y-99692265D01*
X129620147Y-99716310D01*
X129613398Y-99714837D01*
X129607913Y-99691317D01*
X129607691Y-99690030D01*
X129593911Y-99651980D01*
X129563266Y-99636255D01*
X129551595Y-99634509D01*
X129515428Y-99634372D01*
X129487279Y-99646994D01*
X129462690Y-99677571D01*
X129437205Y-99731297D01*
X129412294Y-99796873D01*
X129378668Y-99885163D01*
X129348975Y-99950189D01*
X129318155Y-100001339D01*
X129281146Y-100048001D01*
X129270555Y-100059823D01*
X129227413Y-100107146D01*
X129208735Y-100051356D01*
X129186327Y-100008716D01*
X129152087Y-99991231D01*
X129145733Y-99990289D01*
X129087520Y-99995187D01*
X129044909Y-100027718D01*
X129016738Y-100082948D01*
X128947006Y-100259043D01*
X128870775Y-100415746D01*
X128790308Y-100549190D01*
X128707865Y-100655510D01*
X128647729Y-100713779D01*
X128584223Y-100759391D01*
X128534150Y-100777782D01*
X128492372Y-100770054D01*
X128468029Y-100752298D01*
X128419542Y-100717887D01*
X128362058Y-100691693D01*
X128312612Y-100681366D01*
X128289914Y-100694634D01*
X128261567Y-100727686D01*
X128253574Y-100739812D01*
X128227732Y-100806689D01*
X128234568Y-100871998D01*
G36*
X126417094Y-95423377D02*
G01*
X126444756Y-95532903D01*
X126496448Y-95639782D01*
X126562960Y-95728674D01*
X126643935Y-95799777D01*
X126741727Y-95851776D01*
X126862371Y-95887503D01*
X126925897Y-95899053D01*
X127028840Y-95898626D01*
X127134191Y-95869101D01*
X127236193Y-95814246D01*
X127329086Y-95737828D01*
X127407111Y-95643617D01*
X127458127Y-95550784D01*
X127471112Y-95501874D01*
X127479873Y-95432096D01*
X127484041Y-95353042D01*
X127483248Y-95276303D01*
X127477123Y-95213471D01*
X127469773Y-95184722D01*
X127450644Y-95146171D01*
X127421019Y-95096207D01*
X127386291Y-95042775D01*
X127351853Y-94993825D01*
X127323101Y-94957303D01*
X127305426Y-94941157D01*
X127304348Y-94940966D01*
X127284404Y-94932222D01*
X127247665Y-94910137D01*
X127228707Y-94897613D01*
X127126704Y-94848786D01*
X127006289Y-94827980D01*
X126868255Y-94835319D01*
X126849828Y-94838217D01*
X126772100Y-94854382D01*
X126710856Y-94876710D01*
X126655573Y-94911053D01*
X126595727Y-94963265D01*
X126558511Y-95000233D01*
X126491724Y-95090506D01*
X126442739Y-95204874D01*
X126416626Y-95320036D01*
X126417094Y-95423377D01*
G37*
X126417094Y-95423377D02*
X126444756Y-95532903D01*
X126496448Y-95639782D01*
X126562960Y-95728674D01*
X126643935Y-95799777D01*
X126741727Y-95851776D01*
X126862371Y-95887503D01*
X126925897Y-95899053D01*
X127028840Y-95898626D01*
X127134191Y-95869101D01*
X127236193Y-95814246D01*
X127329086Y-95737828D01*
X127407111Y-95643617D01*
X127458127Y-95550784D01*
X127471112Y-95501874D01*
X127479873Y-95432096D01*
X127484041Y-95353042D01*
X127483248Y-95276303D01*
X127477123Y-95213471D01*
X127469773Y-95184722D01*
X127450644Y-95146171D01*
X127421019Y-95096207D01*
X127386291Y-95042775D01*
X127351853Y-94993825D01*
X127323101Y-94957303D01*
X127305426Y-94941157D01*
X127304348Y-94940966D01*
X127284404Y-94932222D01*
X127247665Y-94910137D01*
X127228707Y-94897613D01*
X127126704Y-94848786D01*
X127006289Y-94827980D01*
X126868255Y-94835319D01*
X126849828Y-94838217D01*
X126772100Y-94854382D01*
X126710856Y-94876710D01*
X126655573Y-94911053D01*
X126595727Y-94963265D01*
X126558511Y-95000233D01*
X126491724Y-95090506D01*
X126442739Y-95204874D01*
X126416626Y-95320036D01*
X126417094Y-95423377D01*
G36*
X125735440Y-97410112D02*
G01*
X125763995Y-97499526D01*
X125776879Y-97528251D01*
X125848742Y-97642199D01*
X125945419Y-97733166D01*
X126066579Y-97800859D01*
X126097413Y-97812937D01*
X126162904Y-97835673D01*
X126210145Y-97847215D01*
X126252306Y-97849006D01*
X126302558Y-97842490D01*
X126326784Y-97838086D01*
X126465988Y-97797702D01*
X126582511Y-97733548D01*
X126675008Y-97646691D01*
X126742139Y-97538197D01*
X126759760Y-97494268D01*
X126783821Y-97399586D01*
X126795030Y-97296657D01*
X126792821Y-97198377D01*
X126776626Y-97117640D01*
X126776369Y-97116900D01*
X126738406Y-97041183D01*
X126680003Y-96962248D01*
X126610057Y-96889782D01*
X126537464Y-96833471D01*
X126495494Y-96811113D01*
X126424278Y-96790597D01*
X126334607Y-96777579D01*
X126240452Y-96772987D01*
X126155782Y-96777751D01*
X126114339Y-96785764D01*
X126016231Y-96828661D01*
X125923235Y-96897272D01*
X125841970Y-96984180D01*
X125779055Y-97081966D01*
X125741108Y-97183212D01*
X125736065Y-97209741D01*
X125726706Y-97318011D01*
X125735440Y-97410112D01*
G37*
X125735440Y-97410112D02*
X125763995Y-97499526D01*
X125776879Y-97528251D01*
X125848742Y-97642199D01*
X125945419Y-97733166D01*
X126066579Y-97800859D01*
X126097413Y-97812937D01*
X126162904Y-97835673D01*
X126210145Y-97847215D01*
X126252306Y-97849006D01*
X126302558Y-97842490D01*
X126326784Y-97838086D01*
X126465988Y-97797702D01*
X126582511Y-97733548D01*
X126675008Y-97646691D01*
X126742139Y-97538197D01*
X126759760Y-97494268D01*
X126783821Y-97399586D01*
X126795030Y-97296657D01*
X126792821Y-97198377D01*
X126776626Y-97117640D01*
X126776369Y-97116900D01*
X126738406Y-97041183D01*
X126680003Y-96962248D01*
X126610057Y-96889782D01*
X126537464Y-96833471D01*
X126495494Y-96811113D01*
X126424278Y-96790597D01*
X126334607Y-96777579D01*
X126240452Y-96772987D01*
X126155782Y-96777751D01*
X126114339Y-96785764D01*
X126016231Y-96828661D01*
X125923235Y-96897272D01*
X125841970Y-96984180D01*
X125779055Y-97081966D01*
X125741108Y-97183212D01*
X125736065Y-97209741D01*
X125726706Y-97318011D01*
X125735440Y-97410112D01*
D13*
%TO.C,D5*%
X157170000Y-126240000D02*
X157170000Y-127700000D01*
X160330000Y-126240000D02*
X160330000Y-128400000D01*
X160330000Y-126240000D02*
X159400000Y-126240000D01*
X157170000Y-126240000D02*
X158100000Y-126240000D01*
%TO.C,D4*%
X138120000Y-126240000D02*
X138120000Y-127700000D01*
X141280000Y-126240000D02*
X141280000Y-128400000D01*
X141280000Y-126240000D02*
X140350000Y-126240000D01*
X138120000Y-126240000D02*
X139050000Y-126240000D01*
%TO.C,D3*%
X141280000Y-85691250D02*
X141280000Y-84231250D01*
X138120000Y-85691250D02*
X138120000Y-83531250D01*
X138120000Y-85691250D02*
X139050000Y-85691250D01*
X141280000Y-85691250D02*
X140350000Y-85691250D01*
%TO.C,D2*%
X166880000Y-73335000D02*
X168340000Y-73335000D01*
X166880000Y-70175000D02*
X169040000Y-70175000D01*
X166880000Y-70175000D02*
X166880000Y-71105000D01*
X166880000Y-73335000D02*
X166880000Y-72405000D01*
%TO.C,D1*%
X141280000Y-66641250D02*
X141280000Y-65181250D01*
X138120000Y-66641250D02*
X138120000Y-64481250D01*
X138120000Y-66641250D02*
X139050000Y-66641250D01*
X141280000Y-66641250D02*
X140350000Y-66641250D01*
%TO.C,X1*%
X148304500Y-106744500D02*
X152304500Y-106744500D01*
X148304500Y-110044500D02*
X148304500Y-106744500D01*
%TO.C,USB1*%
X144525000Y-49435000D02*
X144525000Y-47535000D01*
X144525000Y-53335000D02*
X144525000Y-51335000D01*
X153925000Y-49435000D02*
X153925000Y-47535000D01*
X153925000Y-53335000D02*
X153925000Y-51335000D01*
X144525000Y-47535000D02*
X153925000Y-47535000D01*
%TO.C,U2*%
X159650000Y-63586000D02*
X157850000Y-63586000D01*
X157850000Y-60366000D02*
X160300000Y-60366000D01*
D14*
%TO.C,U1*%
X152913500Y-103383500D02*
X152688500Y-103383500D01*
X152913500Y-96133500D02*
X152588500Y-96133500D01*
X145663500Y-96133500D02*
X145988500Y-96133500D01*
X145663500Y-103383500D02*
X145988500Y-103383500D01*
X152913500Y-103383500D02*
X152913500Y-103058500D01*
X145663500Y-103383500D02*
X145663500Y-103058500D01*
X145663500Y-96133500D02*
X145663500Y-96458500D01*
X152913500Y-96133500D02*
X152913500Y-96458500D01*
X152688500Y-103383500D02*
X152688500Y-104808500D01*
D13*
%TO.C,RESET*%
X166956000Y-106221500D02*
X167406000Y-105771500D01*
X170356000Y-106221500D02*
X169906000Y-105771500D01*
X170356000Y-110821500D02*
X169906000Y-111271500D01*
X166956000Y-110821500D02*
X167406000Y-111271500D01*
X171406000Y-109521500D02*
X171406000Y-107521500D01*
X167406000Y-105771500D02*
X169906000Y-105771500D01*
X165906000Y-109521500D02*
X165906000Y-107521500D01*
X167406000Y-111271500D02*
X169906000Y-111271500D01*
%TO.C,R6*%
X162142500Y-107278436D02*
X162142500Y-107732564D01*
X163612500Y-107278436D02*
X163612500Y-107732564D01*
%TO.C,R5*%
X140615936Y-100112500D02*
X141070064Y-100112500D01*
X140615936Y-98642500D02*
X141070064Y-98642500D01*
%TO.C,R4*%
X159158000Y-70511936D02*
X159158000Y-70966064D01*
X160628000Y-70511936D02*
X160628000Y-70966064D01*
%TO.C,R3*%
X156872000Y-70511936D02*
X156872000Y-70966064D01*
X158342000Y-70511936D02*
X158342000Y-70966064D01*
%TO.C,R2*%
X156564000Y-58901064D02*
X156564000Y-58446936D01*
X155094000Y-58901064D02*
X155094000Y-58446936D01*
%TO.C,R1*%
X136805936Y-56615000D02*
X137260064Y-56615000D01*
X136805936Y-55145000D02*
X137260064Y-55145000D01*
%TO.C,F1*%
X156231000Y-71341064D02*
X156231000Y-70136936D01*
X154411000Y-71341064D02*
X154411000Y-70136936D01*
%TO.C,C7*%
X147737500Y-108133248D02*
X147737500Y-108655752D01*
X146267500Y-108133248D02*
X146267500Y-108655752D01*
%TO.C,C6*%
X152871500Y-108655752D02*
X152871500Y-108133248D01*
X154341500Y-108655752D02*
X154341500Y-108133248D01*
%TO.C,C5*%
X157961000Y-97670252D02*
X157961000Y-97147748D01*
X156491000Y-97670252D02*
X156491000Y-97147748D01*
%TO.C,C3*%
X158171248Y-104684500D02*
X158693752Y-104684500D01*
X158171248Y-103214500D02*
X158693752Y-103214500D01*
%TO.C,C2*%
X145578501Y-108133248D02*
X145578501Y-108655752D01*
X144108501Y-108133248D02*
X144108501Y-108655752D01*
%TO.C,C1*%
X156661752Y-87530000D02*
X156139248Y-87530000D01*
X156661752Y-89000000D02*
X156139248Y-89000000D01*
%TO.C,D5*%
D14*
X161702380Y-126261904D02*
X160702380Y-126261904D01*
X160702380Y-126500000D01*
X160750000Y-126642857D01*
X160845238Y-126738095D01*
X160940476Y-126785714D01*
X161130952Y-126833333D01*
X161273809Y-126833333D01*
X161464285Y-126785714D01*
X161559523Y-126738095D01*
X161654761Y-126642857D01*
X161702380Y-126500000D01*
X161702380Y-126261904D01*
X160702380Y-127738095D02*
X160702380Y-127261904D01*
X161178571Y-127214285D01*
X161130952Y-127261904D01*
X161083333Y-127357142D01*
X161083333Y-127595238D01*
X161130952Y-127690476D01*
X161178571Y-127738095D01*
X161273809Y-127785714D01*
X161511904Y-127785714D01*
X161607142Y-127738095D01*
X161654761Y-127690476D01*
X161702380Y-127595238D01*
X161702380Y-127357142D01*
X161654761Y-127261904D01*
X161607142Y-127214285D01*
%TO.C,D4*%
X142652380Y-126261904D02*
X141652380Y-126261904D01*
X141652380Y-126500000D01*
X141700000Y-126642857D01*
X141795238Y-126738095D01*
X141890476Y-126785714D01*
X142080952Y-126833333D01*
X142223809Y-126833333D01*
X142414285Y-126785714D01*
X142509523Y-126738095D01*
X142604761Y-126642857D01*
X142652380Y-126500000D01*
X142652380Y-126261904D01*
X141985714Y-127690476D02*
X142652380Y-127690476D01*
X141604761Y-127452380D02*
X142319047Y-127214285D01*
X142319047Y-127833333D01*
%TO.C,D3*%
X137652380Y-84193154D02*
X136652380Y-84193154D01*
X136652380Y-84431250D01*
X136700000Y-84574107D01*
X136795238Y-84669345D01*
X136890476Y-84716964D01*
X137080952Y-84764583D01*
X137223809Y-84764583D01*
X137414285Y-84716964D01*
X137509523Y-84669345D01*
X137604761Y-84574107D01*
X137652380Y-84431250D01*
X137652380Y-84193154D01*
X136652380Y-85097916D02*
X136652380Y-85716964D01*
X137033333Y-85383630D01*
X137033333Y-85526488D01*
X137080952Y-85621726D01*
X137128571Y-85669345D01*
X137223809Y-85716964D01*
X137461904Y-85716964D01*
X137557142Y-85669345D01*
X137604761Y-85621726D01*
X137652380Y-85526488D01*
X137652380Y-85240773D01*
X137604761Y-85145535D01*
X137557142Y-85097916D01*
%TO.C,D2*%
X168378095Y-69707380D02*
X168378095Y-68707380D01*
X168140000Y-68707380D01*
X167997142Y-68755000D01*
X167901904Y-68850238D01*
X167854285Y-68945476D01*
X167806666Y-69135952D01*
X167806666Y-69278809D01*
X167854285Y-69469285D01*
X167901904Y-69564523D01*
X167997142Y-69659761D01*
X168140000Y-69707380D01*
X168378095Y-69707380D01*
X167425714Y-68802619D02*
X167378095Y-68755000D01*
X167282857Y-68707380D01*
X167044761Y-68707380D01*
X166949523Y-68755000D01*
X166901904Y-68802619D01*
X166854285Y-68897857D01*
X166854285Y-68993095D01*
X166901904Y-69135952D01*
X167473333Y-69707380D01*
X166854285Y-69707380D01*
%TO.C,D1*%
X137652380Y-65143154D02*
X136652380Y-65143154D01*
X136652380Y-65381250D01*
X136700000Y-65524107D01*
X136795238Y-65619345D01*
X136890476Y-65666964D01*
X137080952Y-65714583D01*
X137223809Y-65714583D01*
X137414285Y-65666964D01*
X137509523Y-65619345D01*
X137604761Y-65524107D01*
X137652380Y-65381250D01*
X137652380Y-65143154D01*
X137652380Y-66666964D02*
X137652380Y-66095535D01*
X137652380Y-66381250D02*
X136652380Y-66381250D01*
X136795238Y-66286011D01*
X136890476Y-66190773D01*
X136938095Y-66095535D01*
%TO.C,X1*%
X151114023Y-110296880D02*
X150447357Y-111296880D01*
X150447357Y-110296880D02*
X151114023Y-111296880D01*
X149542595Y-111296880D02*
X150114023Y-111296880D01*
X149828309Y-111296880D02*
X149828309Y-110296880D01*
X149923547Y-110439738D01*
X150018785Y-110534976D01*
X150114023Y-110582595D01*
%TO.C,USB1*%
X150963095Y-50823880D02*
X150963095Y-51633404D01*
X150915476Y-51728642D01*
X150867857Y-51776261D01*
X150772619Y-51823880D01*
X150582142Y-51823880D01*
X150486904Y-51776261D01*
X150439285Y-51728642D01*
X150391666Y-51633404D01*
X150391666Y-50823880D01*
X149963095Y-51776261D02*
X149820238Y-51823880D01*
X149582142Y-51823880D01*
X149486904Y-51776261D01*
X149439285Y-51728642D01*
X149391666Y-51633404D01*
X149391666Y-51538166D01*
X149439285Y-51442928D01*
X149486904Y-51395309D01*
X149582142Y-51347690D01*
X149772619Y-51300071D01*
X149867857Y-51252452D01*
X149915476Y-51204833D01*
X149963095Y-51109595D01*
X149963095Y-51014357D01*
X149915476Y-50919119D01*
X149867857Y-50871500D01*
X149772619Y-50823880D01*
X149534523Y-50823880D01*
X149391666Y-50871500D01*
X148629761Y-51300071D02*
X148486904Y-51347690D01*
X148439285Y-51395309D01*
X148391666Y-51490547D01*
X148391666Y-51633404D01*
X148439285Y-51728642D01*
X148486904Y-51776261D01*
X148582142Y-51823880D01*
X148963095Y-51823880D01*
X148963095Y-50823880D01*
X148629761Y-50823880D01*
X148534523Y-50871500D01*
X148486904Y-50919119D01*
X148439285Y-51014357D01*
X148439285Y-51109595D01*
X148486904Y-51204833D01*
X148534523Y-51252452D01*
X148629761Y-51300071D01*
X148963095Y-51300071D01*
X147439285Y-51823880D02*
X148010714Y-51823880D01*
X147725000Y-51823880D02*
X147725000Y-50823880D01*
X147820238Y-50966738D01*
X147915476Y-51061976D01*
X148010714Y-51109595D01*
%TO.C,U2*%
X159575404Y-64095380D02*
X159575404Y-64904904D01*
X159527785Y-65000142D01*
X159480166Y-65047761D01*
X159384928Y-65095380D01*
X159194452Y-65095380D01*
X159099214Y-65047761D01*
X159051595Y-65000142D01*
X159003976Y-64904904D01*
X159003976Y-64095380D01*
X158575404Y-64190619D02*
X158527785Y-64143000D01*
X158432547Y-64095380D01*
X158194452Y-64095380D01*
X158099214Y-64143000D01*
X158051595Y-64190619D01*
X158003976Y-64285857D01*
X158003976Y-64381095D01*
X158051595Y-64523952D01*
X158623023Y-65095380D01*
X158003976Y-65095380D01*
%TO.C,U1*%
X149986904Y-99210880D02*
X149986904Y-100020404D01*
X149939285Y-100115642D01*
X149891666Y-100163261D01*
X149796428Y-100210880D01*
X149605952Y-100210880D01*
X149510714Y-100163261D01*
X149463095Y-100115642D01*
X149415476Y-100020404D01*
X149415476Y-99210880D01*
X148415476Y-100210880D02*
X148986904Y-100210880D01*
X148701190Y-100210880D02*
X148701190Y-99210880D01*
X148796428Y-99353738D01*
X148891666Y-99448976D01*
X148986904Y-99496595D01*
%TO.C,RESET*%
X170108380Y-112723880D02*
X170441714Y-112247690D01*
X170679809Y-112723880D02*
X170679809Y-111723880D01*
X170298857Y-111723880D01*
X170203619Y-111771500D01*
X170156000Y-111819119D01*
X170108380Y-111914357D01*
X170108380Y-112057214D01*
X170156000Y-112152452D01*
X170203619Y-112200071D01*
X170298857Y-112247690D01*
X170679809Y-112247690D01*
X169679809Y-112200071D02*
X169346476Y-112200071D01*
X169203619Y-112723880D02*
X169679809Y-112723880D01*
X169679809Y-111723880D01*
X169203619Y-111723880D01*
X168822666Y-112676261D02*
X168679809Y-112723880D01*
X168441714Y-112723880D01*
X168346476Y-112676261D01*
X168298857Y-112628642D01*
X168251238Y-112533404D01*
X168251238Y-112438166D01*
X168298857Y-112342928D01*
X168346476Y-112295309D01*
X168441714Y-112247690D01*
X168632190Y-112200071D01*
X168727428Y-112152452D01*
X168775047Y-112104833D01*
X168822666Y-112009595D01*
X168822666Y-111914357D01*
X168775047Y-111819119D01*
X168727428Y-111771500D01*
X168632190Y-111723880D01*
X168394095Y-111723880D01*
X168251238Y-111771500D01*
X167822666Y-112200071D02*
X167489333Y-112200071D01*
X167346476Y-112723880D02*
X167822666Y-112723880D01*
X167822666Y-111723880D01*
X167346476Y-111723880D01*
X167060761Y-111723880D02*
X166489333Y-111723880D01*
X166775047Y-112723880D02*
X166775047Y-111723880D01*
%TO.C,R6*%
X161679880Y-107338833D02*
X161203690Y-107005500D01*
X161679880Y-106767404D02*
X160679880Y-106767404D01*
X160679880Y-107148357D01*
X160727500Y-107243595D01*
X160775119Y-107291214D01*
X160870357Y-107338833D01*
X161013214Y-107338833D01*
X161108452Y-107291214D01*
X161156071Y-107243595D01*
X161203690Y-107148357D01*
X161203690Y-106767404D01*
X160679880Y-108195976D02*
X160679880Y-108005500D01*
X160727500Y-107910261D01*
X160775119Y-107862642D01*
X160917976Y-107767404D01*
X161108452Y-107719785D01*
X161489404Y-107719785D01*
X161584642Y-107767404D01*
X161632261Y-107815023D01*
X161679880Y-107910261D01*
X161679880Y-108100738D01*
X161632261Y-108195976D01*
X161584642Y-108243595D01*
X161489404Y-108291214D01*
X161251309Y-108291214D01*
X161156071Y-108243595D01*
X161108452Y-108195976D01*
X161060833Y-108100738D01*
X161060833Y-107910261D01*
X161108452Y-107815023D01*
X161156071Y-107767404D01*
X161251309Y-107719785D01*
%TO.C,R5*%
X141009666Y-101479880D02*
X141343000Y-101003690D01*
X141581095Y-101479880D02*
X141581095Y-100479880D01*
X141200142Y-100479880D01*
X141104904Y-100527500D01*
X141057285Y-100575119D01*
X141009666Y-100670357D01*
X141009666Y-100813214D01*
X141057285Y-100908452D01*
X141104904Y-100956071D01*
X141200142Y-101003690D01*
X141581095Y-101003690D01*
X140104904Y-100479880D02*
X140581095Y-100479880D01*
X140628714Y-100956071D01*
X140581095Y-100908452D01*
X140485857Y-100860833D01*
X140247761Y-100860833D01*
X140152523Y-100908452D01*
X140104904Y-100956071D01*
X140057285Y-101051309D01*
X140057285Y-101289404D01*
X140104904Y-101384642D01*
X140152523Y-101432261D01*
X140247761Y-101479880D01*
X140485857Y-101479880D01*
X140581095Y-101432261D01*
X140628714Y-101384642D01*
%TO.C,R4*%
X160345380Y-73366333D02*
X159869190Y-73033000D01*
X160345380Y-72794904D02*
X159345380Y-72794904D01*
X159345380Y-73175857D01*
X159393000Y-73271095D01*
X159440619Y-73318714D01*
X159535857Y-73366333D01*
X159678714Y-73366333D01*
X159773952Y-73318714D01*
X159821571Y-73271095D01*
X159869190Y-73175857D01*
X159869190Y-72794904D01*
X159678714Y-74223476D02*
X160345380Y-74223476D01*
X159297761Y-73985380D02*
X160012047Y-73747285D01*
X160012047Y-74366333D01*
%TO.C,R3*%
X158059380Y-73366333D02*
X157583190Y-73033000D01*
X158059380Y-72794904D02*
X157059380Y-72794904D01*
X157059380Y-73175857D01*
X157107000Y-73271095D01*
X157154619Y-73318714D01*
X157249857Y-73366333D01*
X157392714Y-73366333D01*
X157487952Y-73318714D01*
X157535571Y-73271095D01*
X157583190Y-73175857D01*
X157583190Y-72794904D01*
X157059380Y-73699666D02*
X157059380Y-74318714D01*
X157440333Y-73985380D01*
X157440333Y-74128238D01*
X157487952Y-74223476D01*
X157535571Y-74271095D01*
X157630809Y-74318714D01*
X157868904Y-74318714D01*
X157964142Y-74271095D01*
X158011761Y-74223476D01*
X158059380Y-74128238D01*
X158059380Y-73842523D01*
X158011761Y-73747285D01*
X157964142Y-73699666D01*
%TO.C,R2*%
X157931380Y-58507333D02*
X157455190Y-58174000D01*
X157931380Y-57935904D02*
X156931380Y-57935904D01*
X156931380Y-58316857D01*
X156979000Y-58412095D01*
X157026619Y-58459714D01*
X157121857Y-58507333D01*
X157264714Y-58507333D01*
X157359952Y-58459714D01*
X157407571Y-58412095D01*
X157455190Y-58316857D01*
X157455190Y-57935904D01*
X157026619Y-58888285D02*
X156979000Y-58935904D01*
X156931380Y-59031142D01*
X156931380Y-59269238D01*
X156979000Y-59364476D01*
X157026619Y-59412095D01*
X157121857Y-59459714D01*
X157217095Y-59459714D01*
X157359952Y-59412095D01*
X157931380Y-58840666D01*
X157931380Y-59459714D01*
%TO.C,R1*%
X137199666Y-57982380D02*
X137533000Y-57506190D01*
X137771095Y-57982380D02*
X137771095Y-56982380D01*
X137390142Y-56982380D01*
X137294904Y-57030000D01*
X137247285Y-57077619D01*
X137199666Y-57172857D01*
X137199666Y-57315714D01*
X137247285Y-57410952D01*
X137294904Y-57458571D01*
X137390142Y-57506190D01*
X137771095Y-57506190D01*
X136247285Y-57982380D02*
X136818714Y-57982380D01*
X136533000Y-57982380D02*
X136533000Y-56982380D01*
X136628238Y-57125238D01*
X136723476Y-57220476D01*
X136818714Y-57268095D01*
%TO.C,F1*%
X153344571Y-70278666D02*
X153344571Y-69945333D01*
X153868380Y-69945333D02*
X152868380Y-69945333D01*
X152868380Y-70421523D01*
X153868380Y-71326285D02*
X153868380Y-70754857D01*
X153868380Y-71040571D02*
X152868380Y-71040571D01*
X153011238Y-70945333D01*
X153106476Y-70850095D01*
X153154095Y-70754857D01*
%TO.C,C7*%
X147486642Y-111021833D02*
X147534261Y-110974214D01*
X147581880Y-110831357D01*
X147581880Y-110736119D01*
X147534261Y-110593261D01*
X147439023Y-110498023D01*
X147343785Y-110450404D01*
X147153309Y-110402785D01*
X147010452Y-110402785D01*
X146819976Y-110450404D01*
X146724738Y-110498023D01*
X146629500Y-110593261D01*
X146581880Y-110736119D01*
X146581880Y-110831357D01*
X146629500Y-110974214D01*
X146677119Y-111021833D01*
X146581880Y-111355166D02*
X146581880Y-112021833D01*
X147581880Y-111593261D01*
%TO.C,C6*%
X154027142Y-110958333D02*
X154074761Y-110910714D01*
X154122380Y-110767857D01*
X154122380Y-110672619D01*
X154074761Y-110529761D01*
X153979523Y-110434523D01*
X153884285Y-110386904D01*
X153693809Y-110339285D01*
X153550952Y-110339285D01*
X153360476Y-110386904D01*
X153265238Y-110434523D01*
X153170000Y-110529761D01*
X153122380Y-110672619D01*
X153122380Y-110767857D01*
X153170000Y-110910714D01*
X153217619Y-110958333D01*
X153122380Y-111815476D02*
X153122380Y-111625000D01*
X153170000Y-111529761D01*
X153217619Y-111482142D01*
X153360476Y-111386904D01*
X153550952Y-111339285D01*
X153931904Y-111339285D01*
X154027142Y-111386904D01*
X154074761Y-111434523D01*
X154122380Y-111529761D01*
X154122380Y-111720238D01*
X154074761Y-111815476D01*
X154027142Y-111863095D01*
X153931904Y-111910714D01*
X153693809Y-111910714D01*
X153598571Y-111863095D01*
X153550952Y-111815476D01*
X153503333Y-111720238D01*
X153503333Y-111529761D01*
X153550952Y-111434523D01*
X153598571Y-111386904D01*
X153693809Y-111339285D01*
%TO.C,C5*%
X159424642Y-97242333D02*
X159472261Y-97194714D01*
X159519880Y-97051857D01*
X159519880Y-96956619D01*
X159472261Y-96813761D01*
X159377023Y-96718523D01*
X159281785Y-96670904D01*
X159091309Y-96623285D01*
X158948452Y-96623285D01*
X158757976Y-96670904D01*
X158662738Y-96718523D01*
X158567500Y-96813761D01*
X158519880Y-96956619D01*
X158519880Y-97051857D01*
X158567500Y-97194714D01*
X158615119Y-97242333D01*
X158519880Y-98147095D02*
X158519880Y-97670904D01*
X158996071Y-97623285D01*
X158948452Y-97670904D01*
X158900833Y-97766142D01*
X158900833Y-98004238D01*
X158948452Y-98099476D01*
X158996071Y-98147095D01*
X159091309Y-98194714D01*
X159329404Y-98194714D01*
X159424642Y-98147095D01*
X159472261Y-98099476D01*
X159519880Y-98004238D01*
X159519880Y-97766142D01*
X159472261Y-97670904D01*
X159424642Y-97623285D01*
%TO.C,C3*%
X158599166Y-105986642D02*
X158646785Y-106034261D01*
X158789642Y-106081880D01*
X158884880Y-106081880D01*
X159027738Y-106034261D01*
X159122976Y-105939023D01*
X159170595Y-105843785D01*
X159218214Y-105653309D01*
X159218214Y-105510452D01*
X159170595Y-105319976D01*
X159122976Y-105224738D01*
X159027738Y-105129500D01*
X158884880Y-105081880D01*
X158789642Y-105081880D01*
X158646785Y-105129500D01*
X158599166Y-105177119D01*
X158265833Y-105081880D02*
X157646785Y-105081880D01*
X157980119Y-105462833D01*
X157837261Y-105462833D01*
X157742023Y-105510452D01*
X157694404Y-105558071D01*
X157646785Y-105653309D01*
X157646785Y-105891404D01*
X157694404Y-105986642D01*
X157742023Y-106034261D01*
X157837261Y-106081880D01*
X158122976Y-106081880D01*
X158218214Y-106034261D01*
X158265833Y-105986642D01*
%TO.C,C2*%
X145327642Y-111021833D02*
X145375261Y-110974214D01*
X145422880Y-110831357D01*
X145422880Y-110736119D01*
X145375261Y-110593261D01*
X145280023Y-110498023D01*
X145184785Y-110450404D01*
X144994309Y-110402785D01*
X144851452Y-110402785D01*
X144660976Y-110450404D01*
X144565738Y-110498023D01*
X144470500Y-110593261D01*
X144422880Y-110736119D01*
X144422880Y-110831357D01*
X144470500Y-110974214D01*
X144518119Y-111021833D01*
X144518119Y-111402785D02*
X144470500Y-111450404D01*
X144422880Y-111545642D01*
X144422880Y-111783738D01*
X144470500Y-111878976D01*
X144518119Y-111926595D01*
X144613357Y-111974214D01*
X144708595Y-111974214D01*
X144851452Y-111926595D01*
X145422880Y-111355166D01*
X145422880Y-111974214D01*
%TO.C,C1*%
X156567166Y-86942142D02*
X156614785Y-86989761D01*
X156757642Y-87037380D01*
X156852880Y-87037380D01*
X156995738Y-86989761D01*
X157090976Y-86894523D01*
X157138595Y-86799285D01*
X157186214Y-86608809D01*
X157186214Y-86465952D01*
X157138595Y-86275476D01*
X157090976Y-86180238D01*
X156995738Y-86085000D01*
X156852880Y-86037380D01*
X156757642Y-86037380D01*
X156614785Y-86085000D01*
X156567166Y-86132619D01*
X155614785Y-87037380D02*
X156186214Y-87037380D01*
X155900500Y-87037380D02*
X155900500Y-86037380D01*
X155995738Y-86180238D01*
X156090976Y-86275476D01*
X156186214Y-86323095D01*
%TD*%
M02*
