M48
; DRILL file {KiCad (5.1.10)-1} date 11/11/21 00:21:50
; FORMAT={-:-/ absolute / metric / decimal}
; #@! TF.CreationDate,2021-11-11T00:21:50+01:00
; #@! TF.GenerationSoftware,Kicad,Pcbnew,(5.1.10)-1
; #@! TF.FileFunction,Plated,1,2,PTH
FMAT,2
METRIC
T1C0.400
T2C0.600
T3C1.470
%
G90
G05
T1
X134.938Y-72.898
X140.65Y-59.624
X142.494Y-107.442
X147.511Y-86.614
X151.003Y-98.489
X157.353Y-90.487
X157.48Y-106.489
X160.719Y-84.519
X162.877Y-98.489
T3
X126.365Y-60.96
X126.365Y-80.01
X126.365Y-137.16
X132.715Y-58.42
X132.715Y-77.47
X132.715Y-134.62
X145.415Y-60.96
X145.415Y-80.01
X145.415Y-118.11
X145.415Y-137.16
X151.765Y-58.42
X151.765Y-77.47
X151.765Y-115.57
X151.765Y-134.62
X164.465Y-60.96
X164.465Y-80.01
X164.465Y-137.16
X170.815Y-58.42
X170.815Y-77.47
X170.815Y-134.62
T2
G00X144.905Y-50.085
M15
G01X144.905Y-50.685
M16
G05
G00X144.905Y-54.015
M15
G01X144.905Y-55.115
M16
G05
G00X153.545Y-50.085
M15
G01X153.545Y-50.685
M16
G05
G00X153.545Y-54.015
M15
G01X153.545Y-55.115
M16
G05
T0
M30
