M48
; DRILL file {KiCad (5.1.10)-1} date 11/11/21 00:21:50
; FORMAT={-:-/ absolute / metric / decimal}
; #@! TF.CreationDate,2021-11-11T00:21:50+01:00
; #@! TF.GenerationSoftware,Kicad,Pcbnew,(5.1.10)-1
; #@! TF.FileFunction,NonPlated,1,2,NPTH
FMAT,2
METRIC
T1C0.650
T2C1.750
T3C3.988
%
G90
G05
T1
X146.335Y-54.035
X152.115Y-54.035
T2
X125.095Y-63.5
X125.095Y-82.55
X125.095Y-139.7
X135.255Y-63.5
X135.255Y-82.55
X135.255Y-139.7
X144.145Y-63.5
X144.145Y-82.55
X144.145Y-120.65
X144.145Y-139.7
X154.305Y-63.5
X154.305Y-82.55
X154.305Y-120.65
X154.305Y-139.7
X163.195Y-63.5
X163.195Y-82.55
X163.195Y-139.7
X173.355Y-63.5
X173.355Y-82.55
X173.355Y-139.7
T3
X130.175Y-63.5
X130.175Y-82.55
X130.175Y-139.7
X149.225Y-63.5
X149.225Y-82.55
X149.225Y-120.65
X149.225Y-139.7
X168.275Y-63.5
X168.275Y-82.55
X168.275Y-139.7
T0
M30
