%TF.GenerationSoftware,KiCad,Pcbnew,(5.1.10)-1*%
%TF.CreationDate,2021-11-11T12:41:23+01:00*%
%TF.ProjectId,navidat,6e617669-6461-4742-9e6b-696361645f70,rev?*%
%TF.SameCoordinates,Original*%
%TF.FileFunction,Soldermask,Bot*%
%TF.FilePolarity,Negative*%
%FSLAX46Y46*%
G04 Gerber Fmt 4.6, Leading zero omitted, Abs format (unit mm)*
G04 Created by KiCad (PCBNEW (5.1.10)-1) date 2021-11-11 12:41:23*
%MOMM*%
%LPD*%
G01*
G04 APERTURE LIST*
%ADD10C,2.250000*%
%ADD11C,3.987800*%
%ADD12C,1.750000*%
%ADD13R,0.800000X0.900000*%
%ADD14R,0.900000X0.800000*%
%ADD15R,1.400000X1.200000*%
%ADD16R,0.600000X1.450000*%
%ADD17R,0.300000X1.450000*%
%ADD18O,1.000000X2.100000*%
%ADD19C,0.650000*%
%ADD20O,1.000000X1.600000*%
%ADD21R,1.060000X0.650000*%
%ADD22R,1.600000X0.550000*%
%ADD23R,0.550000X1.600000*%
%ADD24R,1.700000X1.000000*%
G04 APERTURE END LIST*
D10*
%TO.C,MX8*%
X151765000Y-115570000D03*
D11*
X149225000Y-120650000D03*
D10*
X145415000Y-118110000D03*
D12*
X144145000Y-120650000D03*
X154305000Y-120650000D03*
%TD*%
D13*
%TO.C,D5*%
X158750000Y-126000000D03*
X157800000Y-128000000D03*
X159700000Y-128000000D03*
%TD*%
%TO.C,D4*%
X139700000Y-126000000D03*
X138750000Y-128000000D03*
X140650000Y-128000000D03*
%TD*%
%TO.C,D3*%
X139700000Y-85931250D03*
X140650000Y-83931250D03*
X138750000Y-83931250D03*
%TD*%
D14*
%TO.C,D2*%
X166640000Y-71755000D03*
X168640000Y-72705000D03*
X168640000Y-70805000D03*
%TD*%
D13*
%TO.C,D1*%
X139700000Y-66881250D03*
X140650000Y-64881250D03*
X138750000Y-64881250D03*
%TD*%
D10*
%TO.C,MX4*%
X170815000Y-77470000D03*
D11*
X168275000Y-82550000D03*
D10*
X164465000Y-80010000D03*
D12*
X163195000Y-82550000D03*
X173355000Y-82550000D03*
%TD*%
D15*
%TO.C,X1*%
X149204500Y-107544500D03*
X151404500Y-107544500D03*
X151404500Y-109244500D03*
X149204500Y-109244500D03*
%TD*%
D16*
%TO.C,USB1*%
X152475000Y-55480000D03*
X151675000Y-55480000D03*
X146775000Y-55480000D03*
X145975000Y-55480000D03*
X145975000Y-55480000D03*
X146775000Y-55480000D03*
X151675000Y-55480000D03*
X152475000Y-55480000D03*
D17*
X147475000Y-55480000D03*
X147975000Y-55480000D03*
X148475000Y-55480000D03*
X149475000Y-55480000D03*
X149975000Y-55480000D03*
X150475000Y-55480000D03*
X150975000Y-55480000D03*
X148975000Y-55480000D03*
D18*
X153545000Y-54565000D03*
X144905000Y-54565000D03*
D19*
X146335000Y-54035000D03*
D20*
X144905000Y-50385000D03*
D19*
X152115000Y-54035000D03*
D20*
X153545000Y-50385000D03*
%TD*%
D21*
%TO.C,U2*%
X157650000Y-61976000D03*
X157650000Y-61026000D03*
X157650000Y-62926000D03*
X159850000Y-62926000D03*
X159850000Y-61976000D03*
X159850000Y-61026000D03*
%TD*%
D22*
%TO.C,U1*%
X153538500Y-102558500D03*
X153538500Y-101758500D03*
X153538500Y-100958500D03*
X153538500Y-100158500D03*
X153538500Y-99358500D03*
X153538500Y-98558500D03*
X153538500Y-97758500D03*
X153538500Y-96958500D03*
D23*
X152088500Y-95508500D03*
X151288500Y-95508500D03*
X150488500Y-95508500D03*
X149688500Y-95508500D03*
X148888500Y-95508500D03*
X148088500Y-95508500D03*
X147288500Y-95508500D03*
X146488500Y-95508500D03*
D22*
X145038500Y-96958500D03*
X145038500Y-97758500D03*
X145038500Y-98558500D03*
X145038500Y-99358500D03*
X145038500Y-100158500D03*
X145038500Y-100958500D03*
X145038500Y-101758500D03*
X145038500Y-102558500D03*
D23*
X146488500Y-104008500D03*
X147288500Y-104008500D03*
X148088500Y-104008500D03*
X148888500Y-104008500D03*
X149688500Y-104008500D03*
X150488500Y-104008500D03*
X151288500Y-104008500D03*
X152088500Y-104008500D03*
%TD*%
D24*
%TO.C,RESET*%
X171806000Y-106621500D03*
X165506000Y-106621500D03*
X171806000Y-110421500D03*
X165506000Y-110421500D03*
%TD*%
%TO.C,R6*%
G36*
G01*
X162427498Y-107905500D02*
X163327502Y-107905500D01*
G75*
G02*
X163577500Y-108155498I0J-249998D01*
G01*
X163577500Y-108680502D01*
G75*
G02*
X163327502Y-108930500I-249998J0D01*
G01*
X162427498Y-108930500D01*
G75*
G02*
X162177500Y-108680502I0J249998D01*
G01*
X162177500Y-108155498D01*
G75*
G02*
X162427498Y-107905500I249998J0D01*
G01*
G37*
G36*
G01*
X162427498Y-106080500D02*
X163327502Y-106080500D01*
G75*
G02*
X163577500Y-106330498I0J-249998D01*
G01*
X163577500Y-106855502D01*
G75*
G02*
X163327502Y-107105500I-249998J0D01*
G01*
X162427498Y-107105500D01*
G75*
G02*
X162177500Y-106855502I0J249998D01*
G01*
X162177500Y-106330498D01*
G75*
G02*
X162427498Y-106080500I249998J0D01*
G01*
G37*
%TD*%
%TO.C,R5*%
G36*
G01*
X141243000Y-99827502D02*
X141243000Y-98927498D01*
G75*
G02*
X141492998Y-98677500I249998J0D01*
G01*
X142018002Y-98677500D01*
G75*
G02*
X142268000Y-98927498I0J-249998D01*
G01*
X142268000Y-99827502D01*
G75*
G02*
X142018002Y-100077500I-249998J0D01*
G01*
X141492998Y-100077500D01*
G75*
G02*
X141243000Y-99827502I0J249998D01*
G01*
G37*
G36*
G01*
X139418000Y-99827502D02*
X139418000Y-98927498D01*
G75*
G02*
X139667998Y-98677500I249998J0D01*
G01*
X140193002Y-98677500D01*
G75*
G02*
X140443000Y-98927498I0J-249998D01*
G01*
X140443000Y-99827502D01*
G75*
G02*
X140193002Y-100077500I-249998J0D01*
G01*
X139667998Y-100077500D01*
G75*
G02*
X139418000Y-99827502I0J249998D01*
G01*
G37*
%TD*%
%TO.C,R4*%
G36*
G01*
X159442998Y-71139000D02*
X160343002Y-71139000D01*
G75*
G02*
X160593000Y-71388998I0J-249998D01*
G01*
X160593000Y-71914002D01*
G75*
G02*
X160343002Y-72164000I-249998J0D01*
G01*
X159442998Y-72164000D01*
G75*
G02*
X159193000Y-71914002I0J249998D01*
G01*
X159193000Y-71388998D01*
G75*
G02*
X159442998Y-71139000I249998J0D01*
G01*
G37*
G36*
G01*
X159442998Y-69314000D02*
X160343002Y-69314000D01*
G75*
G02*
X160593000Y-69563998I0J-249998D01*
G01*
X160593000Y-70089002D01*
G75*
G02*
X160343002Y-70339000I-249998J0D01*
G01*
X159442998Y-70339000D01*
G75*
G02*
X159193000Y-70089002I0J249998D01*
G01*
X159193000Y-69563998D01*
G75*
G02*
X159442998Y-69314000I249998J0D01*
G01*
G37*
%TD*%
%TO.C,R3*%
G36*
G01*
X157156998Y-71139000D02*
X158057002Y-71139000D01*
G75*
G02*
X158307000Y-71388998I0J-249998D01*
G01*
X158307000Y-71914002D01*
G75*
G02*
X158057002Y-72164000I-249998J0D01*
G01*
X157156998Y-72164000D01*
G75*
G02*
X156907000Y-71914002I0J249998D01*
G01*
X156907000Y-71388998D01*
G75*
G02*
X157156998Y-71139000I249998J0D01*
G01*
G37*
G36*
G01*
X157156998Y-69314000D02*
X158057002Y-69314000D01*
G75*
G02*
X158307000Y-69563998I0J-249998D01*
G01*
X158307000Y-70089002D01*
G75*
G02*
X158057002Y-70339000I-249998J0D01*
G01*
X157156998Y-70339000D01*
G75*
G02*
X156907000Y-70089002I0J249998D01*
G01*
X156907000Y-69563998D01*
G75*
G02*
X157156998Y-69314000I249998J0D01*
G01*
G37*
%TD*%
%TO.C,R2*%
G36*
G01*
X156279002Y-58274000D02*
X155378998Y-58274000D01*
G75*
G02*
X155129000Y-58024002I0J249998D01*
G01*
X155129000Y-57498998D01*
G75*
G02*
X155378998Y-57249000I249998J0D01*
G01*
X156279002Y-57249000D01*
G75*
G02*
X156529000Y-57498998I0J-249998D01*
G01*
X156529000Y-58024002D01*
G75*
G02*
X156279002Y-58274000I-249998J0D01*
G01*
G37*
G36*
G01*
X156279002Y-60099000D02*
X155378998Y-60099000D01*
G75*
G02*
X155129000Y-59849002I0J249998D01*
G01*
X155129000Y-59323998D01*
G75*
G02*
X155378998Y-59074000I249998J0D01*
G01*
X156279002Y-59074000D01*
G75*
G02*
X156529000Y-59323998I0J-249998D01*
G01*
X156529000Y-59849002D01*
G75*
G02*
X156279002Y-60099000I-249998J0D01*
G01*
G37*
%TD*%
%TO.C,R1*%
G36*
G01*
X137433000Y-56330002D02*
X137433000Y-55429998D01*
G75*
G02*
X137682998Y-55180000I249998J0D01*
G01*
X138208002Y-55180000D01*
G75*
G02*
X138458000Y-55429998I0J-249998D01*
G01*
X138458000Y-56330002D01*
G75*
G02*
X138208002Y-56580000I-249998J0D01*
G01*
X137682998Y-56580000D01*
G75*
G02*
X137433000Y-56330002I0J249998D01*
G01*
G37*
G36*
G01*
X135608000Y-56330002D02*
X135608000Y-55429998D01*
G75*
G02*
X135857998Y-55180000I249998J0D01*
G01*
X136383002Y-55180000D01*
G75*
G02*
X136633000Y-55429998I0J-249998D01*
G01*
X136633000Y-56330002D01*
G75*
G02*
X136383002Y-56580000I-249998J0D01*
G01*
X135857998Y-56580000D01*
G75*
G02*
X135608000Y-56330002I0J249998D01*
G01*
G37*
%TD*%
D10*
%TO.C,MX10*%
X170815000Y-134620000D03*
D11*
X168275000Y-139700000D03*
D10*
X164465000Y-137160000D03*
D12*
X163195000Y-139700000D03*
X173355000Y-139700000D03*
%TD*%
D10*
%TO.C,MX9*%
X151765000Y-134620000D03*
D11*
X149225000Y-139700000D03*
D10*
X145415000Y-137160000D03*
D12*
X144145000Y-139700000D03*
X154305000Y-139700000D03*
%TD*%
D10*
%TO.C,MX7*%
X132715000Y-134620000D03*
D11*
X130175000Y-139700000D03*
D10*
X126365000Y-137160000D03*
D12*
X125095000Y-139700000D03*
X135255000Y-139700000D03*
%TD*%
D10*
%TO.C,MX6*%
X151765000Y-77470000D03*
D11*
X149225000Y-82550000D03*
D10*
X145415000Y-80010000D03*
D12*
X144145000Y-82550000D03*
X154305000Y-82550000D03*
%TD*%
D10*
%TO.C,MX5*%
X132715000Y-77470000D03*
D11*
X130175000Y-82550000D03*
D10*
X126365000Y-80010000D03*
D12*
X125095000Y-82550000D03*
X135255000Y-82550000D03*
%TD*%
D10*
%TO.C,MX3*%
X170815000Y-58420000D03*
D11*
X168275000Y-63500000D03*
D10*
X164465000Y-60960000D03*
D12*
X163195000Y-63500000D03*
X173355000Y-63500000D03*
%TD*%
D10*
%TO.C,MX2*%
X151765000Y-58420000D03*
D11*
X149225000Y-63500000D03*
D10*
X145415000Y-60960000D03*
D12*
X144145000Y-63500000D03*
X154305000Y-63500000D03*
%TD*%
D10*
%TO.C,MX1*%
X132715000Y-58420000D03*
D11*
X130175000Y-63500000D03*
D10*
X126365000Y-60960000D03*
D12*
X125095000Y-63500000D03*
X135255000Y-63500000D03*
%TD*%
%TO.C,F1*%
G36*
G01*
X155946000Y-69964000D02*
X154696000Y-69964000D01*
G75*
G02*
X154446000Y-69714000I0J250000D01*
G01*
X154446000Y-68964000D01*
G75*
G02*
X154696000Y-68714000I250000J0D01*
G01*
X155946000Y-68714000D01*
G75*
G02*
X156196000Y-68964000I0J-250000D01*
G01*
X156196000Y-69714000D01*
G75*
G02*
X155946000Y-69964000I-250000J0D01*
G01*
G37*
G36*
G01*
X155946000Y-72764000D02*
X154696000Y-72764000D01*
G75*
G02*
X154446000Y-72514000I0J250000D01*
G01*
X154446000Y-71764000D01*
G75*
G02*
X154696000Y-71514000I250000J0D01*
G01*
X155946000Y-71514000D01*
G75*
G02*
X156196000Y-71764000I0J-250000D01*
G01*
X156196000Y-72514000D01*
G75*
G02*
X155946000Y-72764000I-250000J0D01*
G01*
G37*
%TD*%
%TO.C,C7*%
G36*
G01*
X146527500Y-106944500D02*
X147477500Y-106944500D01*
G75*
G02*
X147727500Y-107194500I0J-250000D01*
G01*
X147727500Y-107694500D01*
G75*
G02*
X147477500Y-107944500I-250000J0D01*
G01*
X146527500Y-107944500D01*
G75*
G02*
X146277500Y-107694500I0J250000D01*
G01*
X146277500Y-107194500D01*
G75*
G02*
X146527500Y-106944500I250000J0D01*
G01*
G37*
G36*
G01*
X146527500Y-108844500D02*
X147477500Y-108844500D01*
G75*
G02*
X147727500Y-109094500I0J-250000D01*
G01*
X147727500Y-109594500D01*
G75*
G02*
X147477500Y-109844500I-250000J0D01*
G01*
X146527500Y-109844500D01*
G75*
G02*
X146277500Y-109594500I0J250000D01*
G01*
X146277500Y-109094500D01*
G75*
G02*
X146527500Y-108844500I250000J0D01*
G01*
G37*
%TD*%
%TO.C,C6*%
G36*
G01*
X154081500Y-109844500D02*
X153131500Y-109844500D01*
G75*
G02*
X152881500Y-109594500I0J250000D01*
G01*
X152881500Y-109094500D01*
G75*
G02*
X153131500Y-108844500I250000J0D01*
G01*
X154081500Y-108844500D01*
G75*
G02*
X154331500Y-109094500I0J-250000D01*
G01*
X154331500Y-109594500D01*
G75*
G02*
X154081500Y-109844500I-250000J0D01*
G01*
G37*
G36*
G01*
X154081500Y-107944500D02*
X153131500Y-107944500D01*
G75*
G02*
X152881500Y-107694500I0J250000D01*
G01*
X152881500Y-107194500D01*
G75*
G02*
X153131500Y-106944500I250000J0D01*
G01*
X154081500Y-106944500D01*
G75*
G02*
X154331500Y-107194500I0J-250000D01*
G01*
X154331500Y-107694500D01*
G75*
G02*
X154081500Y-107944500I-250000J0D01*
G01*
G37*
%TD*%
%TO.C,C5*%
G36*
G01*
X157701000Y-96959000D02*
X156751000Y-96959000D01*
G75*
G02*
X156501000Y-96709000I0J250000D01*
G01*
X156501000Y-96209000D01*
G75*
G02*
X156751000Y-95959000I250000J0D01*
G01*
X157701000Y-95959000D01*
G75*
G02*
X157951000Y-96209000I0J-250000D01*
G01*
X157951000Y-96709000D01*
G75*
G02*
X157701000Y-96959000I-250000J0D01*
G01*
G37*
G36*
G01*
X157701000Y-98859000D02*
X156751000Y-98859000D01*
G75*
G02*
X156501000Y-98609000I0J250000D01*
G01*
X156501000Y-98109000D01*
G75*
G02*
X156751000Y-97859000I250000J0D01*
G01*
X157701000Y-97859000D01*
G75*
G02*
X157951000Y-98109000I0J-250000D01*
G01*
X157951000Y-98609000D01*
G75*
G02*
X157701000Y-98859000I-250000J0D01*
G01*
G37*
%TD*%
%TO.C,C3*%
G36*
G01*
X158882500Y-104424500D02*
X158882500Y-103474500D01*
G75*
G02*
X159132500Y-103224500I250000J0D01*
G01*
X159632500Y-103224500D01*
G75*
G02*
X159882500Y-103474500I0J-250000D01*
G01*
X159882500Y-104424500D01*
G75*
G02*
X159632500Y-104674500I-250000J0D01*
G01*
X159132500Y-104674500D01*
G75*
G02*
X158882500Y-104424500I0J250000D01*
G01*
G37*
G36*
G01*
X156982500Y-104424500D02*
X156982500Y-103474500D01*
G75*
G02*
X157232500Y-103224500I250000J0D01*
G01*
X157732500Y-103224500D01*
G75*
G02*
X157982500Y-103474500I0J-250000D01*
G01*
X157982500Y-104424500D01*
G75*
G02*
X157732500Y-104674500I-250000J0D01*
G01*
X157232500Y-104674500D01*
G75*
G02*
X156982500Y-104424500I0J250000D01*
G01*
G37*
%TD*%
%TO.C,C2*%
G36*
G01*
X144368501Y-106944500D02*
X145318501Y-106944500D01*
G75*
G02*
X145568501Y-107194500I0J-250000D01*
G01*
X145568501Y-107694500D01*
G75*
G02*
X145318501Y-107944500I-250000J0D01*
G01*
X144368501Y-107944500D01*
G75*
G02*
X144118501Y-107694500I0J250000D01*
G01*
X144118501Y-107194500D01*
G75*
G02*
X144368501Y-106944500I250000J0D01*
G01*
G37*
G36*
G01*
X144368501Y-108844500D02*
X145318501Y-108844500D01*
G75*
G02*
X145568501Y-109094500I0J-250000D01*
G01*
X145568501Y-109594500D01*
G75*
G02*
X145318501Y-109844500I-250000J0D01*
G01*
X144368501Y-109844500D01*
G75*
G02*
X144118501Y-109594500I0J250000D01*
G01*
X144118501Y-109094500D01*
G75*
G02*
X144368501Y-108844500I250000J0D01*
G01*
G37*
%TD*%
%TO.C,C1*%
G36*
G01*
X155950500Y-87790000D02*
X155950500Y-88740000D01*
G75*
G02*
X155700500Y-88990000I-250000J0D01*
G01*
X155200500Y-88990000D01*
G75*
G02*
X154950500Y-88740000I0J250000D01*
G01*
X154950500Y-87790000D01*
G75*
G02*
X155200500Y-87540000I250000J0D01*
G01*
X155700500Y-87540000D01*
G75*
G02*
X155950500Y-87790000I0J-250000D01*
G01*
G37*
G36*
G01*
X157850500Y-87790000D02*
X157850500Y-88740000D01*
G75*
G02*
X157600500Y-88990000I-250000J0D01*
G01*
X157100500Y-88990000D01*
G75*
G02*
X156850500Y-88740000I0J250000D01*
G01*
X156850500Y-87790000D01*
G75*
G02*
X157100500Y-87540000I250000J0D01*
G01*
X157600500Y-87540000D01*
G75*
G02*
X157850500Y-87790000I0J-250000D01*
G01*
G37*
%TD*%
M02*
